<?xml version="1.0" encoding="utf-8"?>
<!-- Generator: Adobe Illustrator 19.1.0, SVG Export Plug-In . SVG Version: 6.00 Build 0)  -->
<svg version="1.1" id="Layer_1" xmlns="http://www.w3.org/2000/svg" xmlns:xlink="http://www.w3.org/1999/xlink" x="0px" y="0px"
	 width="59.909px" height="73.568px" viewBox="0 0 59.909 73.568" enable-background="new 0 0 59.909 73.568" xml:space="preserve">
<g>
	<path fill="#357EBB" d="M28.78,26.266c0-0.005,0.008-0.008,0.009-0.013V26.02c0-0.439,0.359-0.799,0.798-0.799h0.735
		c0.439,0,0.799,0.359,0.799,0.799v0.233c0.001,0.005,0.009,0.008,0.009,0.013c0.683-0.405,1.146-1.141,1.146-1.99v-1.082
		c0-1.28-1.041-2.321-2.321-2.321c-1.28,0-2.321,1.041-2.321,2.321v1.082C27.633,25.125,28.097,25.862,28.78,26.266z"/>
	<path fill="#357EBB" d="M35.443,28.466c-0.004-1.387-1.134-2.514-2.522-2.514h-0.862c-0.25,0.314-0.567,0.571-0.929,0.751h-0.009
		v1.068c0,0.439-0.359,0.799-0.799,0.799h-0.735c-0.439,0-0.798-0.359-0.798-0.799v-1.068H28.78
		c-0.362-0.179-0.679-0.437-0.93-0.751h-0.862c-1.388,0-2.518,1.127-2.522,2.514l-1.252,10.793l0,0.015
		c0,0.586,0.477,1.064,1.064,1.064c0.583,0,1.057-0.471,1.064-1.052l1.334-8.348l0.001-0.021c0-0.084,0.068-0.152,0.152-0.152
		c0.084,0,0.152,0.068,0.152,0.157l-0.515,5.657c-0.027,0.043-0.044,0.092-0.047,0.146l-0.838,15.293
		c0,0.006-0.001,0.011-0.001,0.017c0,0.3,0.247,0.544,0.549,0.544h2.451c0.299,0,0.543-0.239,0.548-0.535l0.622-12.045
		c0-0.005,0-0.01,0-0.016c0-0.112,0.091-0.203,0.204-0.203c0.112,0,0.204,0.091,0.204,0.203c0,0.005,0,0.011,0,0.016l0.622,12.045
		c0.005,0.296,0.249,0.535,0.548,0.535h2.45c0.303,0,0.55-0.244,0.55-0.544c0-0.006,0-0.011,0-0.017L33.49,36.724
		c-0.003-0.054-0.02-0.104-0.047-0.146l-0.515-5.662c0-0.084,0.068-0.152,0.152-0.152c0.084,0,0.152,0.068,0.152,0.152v0.011
		l1.335,8.359c0.005,0.484,0.346,0.863,0.794,0.983l0.07,12.174c0.001,0.141,0.116,0.255,0.257,0.254l0.364-0.002
		c0.14-0.001,0.255-0.116,0.254-0.257l-0.071-12.312c0.272-0.191,0.459-0.494,0.459-0.851v-0.007L35.443,28.466z"/>
</g>
</svg>
