<?xml version="1.0" encoding="utf-8"?>
<!-- Generator: Adobe Illustrator 19.1.0, SVG Export Plug-In . SVG Version: 6.00 Build 0)  -->
<svg version="1.1" id="Layer_1" xmlns="http://www.w3.org/2000/svg" xmlns:xlink="http://www.w3.org/1999/xlink" x="0px" y="0px"
	 width="59.909px" height="73.568px" viewBox="0 0 59.909 73.568" enable-background="new 0 0 59.909 73.568" xml:space="preserve">
<g>
	<path fill="#357EBB" d="M28.812,49.713c-3.833,0-6.952-3.119-6.952-6.952c0-0.639,0.094-1.256,0.256-1.844l-0.722-1.972
		c-0.592,1.145-0.932,2.441-0.932,3.816c0,4.604,3.746,8.35,8.35,8.35c2.505,0,4.749-1.114,6.281-2.866l-0.266-2.014
		C33.623,48.309,31.381,49.713,28.812,49.713z"/>
	<path fill="#357EBB" d="M28.3,28.025c1.241,0,2.251-1.01,2.251-2.251v-1.065c0-1.241-1.01-2.251-2.251-2.251
		c-1.241,0-2.251,1.01-2.251,2.251v1.065C26.049,27.015,27.059,28.025,28.3,28.025z"/>
	<path fill="#357EBB" d="M39.236,46.801l-0.497-7.817c-0.115-0.532-0.503-0.972-1.049-1.158l-0.489-0.094
		c-0.652-0.061-2.77-0.096-4.082-0.108l-1.51-6.669c-0.409-1.228-0.894-1.988-2.043-1.988h-2.339c-0.3,0-0.584,0.068-0.841,0.186
		c-0.089,0.028-0.175,0.068-0.256,0.127c-0.884,0.644-1.73,1.337-2.592,2.009c-0.002-0.003-0.005-0.005-0.007-0.008
		c-0.831,0.649-1.671,1.286-2.49,1.949c-0.065,0.052-0.098,0.115-0.147,0.173c-0.003,0.003-0.005,0.005-0.007,0.008
		c-0.087,0.103-0.153,0.211-0.193,0.327c-0.023,0.061-0.042,0.122-0.053,0.187c-0.005,0.037-0.01,0.074-0.011,0.112
		c-0.006,0.117,0.002,0.236,0.042,0.357c0.363,1.088,0.784,2.156,1.181,3.232c-0.003,0.001-0.007,0.002-0.009,0.004
		c0.382,1.038,0.752,2.08,1.152,3.112c0.258,0.668,0.858,0.899,1.524,0.63c0.612-0.249,0.878-0.809,0.656-1.443
		c-0.261-0.748-0.544-1.488-0.817-2.231c-0.392-1.062-0.784-2.124-1.176-3.186c0.361-0.281,0.723-0.56,1.083-0.842
		c0.426-0.332,0.851-0.664,1.277-0.996l1.527,6.726l-0.005,0.002c0.006,0.036,0.021,0.071,0.03,0.106l0.106,0.466l0.057-0.019
		c0.378,0.773,1.199,1.407,2.019,1.464l5.847,0.01l1.007,7.641c0.017,0.13,0.128,0.227,0.259,0.227c0.001,0,0.001,0,0.002,0
		l2.797-0.037c0.073-0.001,0.142-0.033,0.191-0.087c0.048-0.055,0.072-0.127,0.065-0.199L39.236,46.801z"/>
</g>
</svg>
