<?xml version="1.0" encoding="utf-8"?>
<!-- Generator: Adobe Illustrator 19.1.0, SVG Export Plug-In . SVG Version: 6.00 Build 0)  -->
<svg version="1.1" id="Layer_1" xmlns="http://www.w3.org/2000/svg" xmlns:xlink="http://www.w3.org/1999/xlink" x="0px" y="0px"
	 width="59.909px" height="73.568px" viewBox="0 0 59.909 73.568" enable-background="new 0 0 59.909 73.568" xml:space="preserve">
<g>
	<g>
		<path fill="#357EBB" d="M16.397,39.93c0.714,0,1.294-0.581,1.294-1.294V38.05c0-0.714-0.581-1.294-1.294-1.294
			s-1.294,0.581-1.294,1.294v0.586C15.103,39.35,15.683,39.93,16.397,39.93z"/>
		<path fill="#357EBB" d="M19.823,44.593l-0.004-0.011c-0.129-0.333-1.298-3.286-1.31-3.316l-0.003-0.008
			c-0.217-0.483-0.374-0.833-0.872-0.807h-2.531c-0.498-0.026-0.655,0.324-0.872,0.807l-0.003,0.008
			c-0.012,0.03-1.181,2.983-1.31,3.316l-0.004,0.011c-0.08,0.253,0.061,0.524,0.313,0.604c0.051,0.016,0.101,0.024,0.151,0.024
			c0.173,0,0.332-0.095,0.422-0.262c0.04-0.076,0.945-1.732,1.285-2.355c-0.059,0.511-0.177,1.553-0.209,1.916
			c-0.009,0.021-0.014,0.043-0.016,0.066l-0.274,5.441c0,0.003,0,0.007,0,0.01c0,0.161,0.132,0.292,0.294,0.292h0.968
			c0.16,0,0.29-0.127,0.294-0.285l0.223-4.053c0-0.004,0.007-0.007,0.007-0.011c0,0.004,0,0.009,0,0.013l0.268,4.053
			c0.004,0.157,0.134,0.284,0.294,0.284h0.968c0.162,0,0.294-0.131,0.294-0.292c0-0.004,0-0.008,0-0.012l-0.319-5.441
			c-0.001-0.023-0.007-0.044-0.016-0.065c-0.032-0.364-0.15-1.406-0.209-1.916c0.34,0.622,1.244,2.279,1.285,2.355
			c0.115,0.215,0.345,0.31,0.572,0.238C19.763,45.117,19.903,44.846,19.823,44.593z"/>
	</g>
	<g>
		<path fill="#357EBB" d="M41.729,39.371c0.238,0,0.453-0.094,0.613-0.246c0.193,0.472,0.657,0.805,1.198,0.805
			c0.54,0,1.003-0.332,1.197-0.802c0.16,0.151,0.374,0.244,0.611,0.244c0.103,0,0.187-0.084,0.187-0.187
			c0-0.103-0.084-0.187-0.187-0.187c-0.262,0-0.479-0.195-0.514-0.448v-0.5c0-0.714-0.581-1.294-1.294-1.294
			s-1.294,0.581-1.294,1.294v0.469c-0.021,0.267-0.244,0.479-0.517,0.479c-0.103,0-0.187,0.084-0.187,0.187
			C41.542,39.288,41.625,39.371,41.729,39.371z"/>
		<path fill="#357EBB" d="M46.995,44.593l-0.004-0.011c-0.129-0.333-1.298-3.286-1.31-3.316l-0.003-0.008
			c-0.217-0.483-0.374-0.833-0.872-0.807h-2.532c-0.499-0.026-0.655,0.324-0.872,0.807l-0.003,0.008
			c-0.012,0.03-1.181,2.983-1.31,3.316l-0.004,0.011c-0.039,0.122-0.028,0.253,0.032,0.367c0.059,0.114,0.159,0.198,0.282,0.237
			c0.228,0.072,0.458-0.024,0.572-0.238c0.039-0.072,0.894-1.639,1.24-2.273c-0.225,1.081-0.804,3.871-0.814,4.098l0,0.05
			c0,0.261,0.213,0.474,0.474,0.474h0.013l-0.148,2.719c0,0.004,0,0.007,0,0.011c0,0.161,0.132,0.292,0.294,0.292h0.968
			c0.159,0,0.29-0.127,0.294-0.285l0.166-2.738h0.167l0.166,2.738c0.004,0.158,0.134,0.285,0.294,0.285h0.968
			c0.162,0,0.294-0.131,0.294-0.292c0-0.004,0-0.007,0-0.011l-0.148-2.719h0.013c0.261,0,0.474-0.213,0.474-0.474l0-0.05
			c-0.01-0.226-0.589-3.016-0.814-4.098c1.04,1.905,1.224,2.244,1.24,2.273c0.115,0.215,0.345,0.31,0.572,0.238
			c0.122-0.039,0.223-0.123,0.282-0.237C47.022,44.846,47.034,44.716,46.995,44.593z"/>
	</g>
	<g>
		<path fill="#357EBB" d="M35.747,27.889c1.049,0,1.903-0.854,1.903-1.903V25.1c0-1.049-0.853-1.903-1.903-1.903
			c-1.049,0-1.903,0.853-1.903,1.903v0.886C33.844,27.035,34.697,27.889,35.747,27.889z"/>
		<path fill="#357EBB" d="M40.758,30.593c-0.003-1.137-0.929-2.061-2.067-2.061h-1.308l-0.152,0.23
			c-0.011,0.017-0.272,0.412-0.586,0.819c-0.433,0.56-0.727,0.832-0.898,0.832c-0.171,0-0.464-0.272-0.898-0.832
			c-0.314-0.407-0.575-0.802-0.586-0.819l-0.152-0.23h-1.308c-1.138,0-2.064,0.924-2.067,2.061l-0.513,8.846l0,0.012
			c0,0.481,0.391,0.872,0.872,0.872c0.478,0,0.867-0.386,0.872-0.862l0.581-6.842l0.001-0.018c0-0.069,0.056-0.125,0.125-0.125
			c0.069,0,0.125,0.056,0.125,0.129l0.091,4.638c-0.022,0.035-0.036,0.075-0.039,0.119l-0.687,12.535c0,0.005,0,0.009,0,0.014
			c0,0.246,0.202,0.446,0.45,0.446h2.008c0.245,0,0.445-0.196,0.449-0.439l0.51-9.873c0-0.004,0-0.009,0-0.013
			c0-0.092,0.075-0.166,0.167-0.166s0.167,0.074,0.167,0.166c0,0.004,0,0.009,0,0.013l0.51,9.873
			c0.004,0.243,0.204,0.439,0.449,0.439h2.008c0.248,0,0.45-0.2,0.45-0.446c0-0.005,0-0.009,0-0.014l-0.687-12.535
			c-0.002-0.044-0.017-0.084-0.039-0.119l0.091-4.642c0-0.069,0.056-0.125,0.125-0.125c0.069,0,0.125,0.056,0.125,0.125v0.009
			l0.581,6.851c0.005,0.476,0.394,0.862,0.872,0.862c0.481,0,0.872-0.391,0.872-0.872L40.758,30.593z"/>
	</g>
	<path fill="#357EBB" d="M29.65,39.288c-0.103-0.762-1.23-7.343-1.274-7.649c-0.132-0.911-0.828-1.671-1.705-1.657h-0.139
		c-0.229-0.588-0.314-2.123-0.297-3.041c0.006-0.078,0.01-0.157,0.01-0.237c0-1.417-0.975-2.553-2.182-2.553
		c-1.207,0-2.182,1.136-2.182,2.553c0,0.08,0.004,0.159,0.01,0.237c0.017,0.918-0.068,2.453-0.297,3.041h-0.139
		c-0.877-0.014-1.573,0.746-1.705,1.657c-0.043,0.305-1.171,6.887-1.274,7.649c-0.05,0.374,0.076,0.83,0.624,1.016
		c0.221,0.075,0.473,0.036,0.675-0.081c0.202-0.117,0.35-0.305,0.41-0.531l0.003-0.011l1.342-6.559
		c0.018-0.063,0.035-0.088,0.041-0.095c0.002,0,0.004,0,0.006,0c0.023,0,0.042,0.019,0.042,0.042l0,0.009
		c0.001,0.029,0.284,2.115,0.284,2.668c0,0.458-1.885,7.29-1.885,7.958c0,0.668,0.739,0.886,1.198,0.886l0.125,0.004l-0.351,5.355
		c-0.001,0.007-0.001,0.013-0.001,0.02c0,0.223,0.183,0.404,0.408,0.404h1.515c0.222,0,0.404-0.178,0.407-0.398l0.342-5.251h0.402
		h0.402l0.342,5.251c0.003,0.22,0.185,0.398,0.407,0.398h1.515c0.225,0,0.408-0.181,0.408-0.404c0-0.007,0-0.013-0.001-0.02
		l-0.351-5.355l0.125-0.004c0.458,0,1.198-0.218,1.198-0.886c0-0.668-1.885-7.5-1.885-7.958c0-0.553,0.283-2.639,0.284-2.668
		l0-0.009c0-0.023,0.019-0.042,0.042-0.042c0.003,0,0.005,0,0.006,0c0.006,0.008,0.023,0.033,0.041,0.095l1.342,6.559l0.003,0.011
		c0.06,0.226,0.208,0.414,0.41,0.531c0.202,0.117,0.454,0.156,0.675,0.081C29.574,40.118,29.7,39.663,29.65,39.288z M22.798,26.671
		c0-0.023,0.001-0.047,0.002-0.069c1.174-0.014,1.682-0.292,1.901-0.526c0.097-0.104,0.163-0.224,0.195-0.355
		c0.264,0.232,0.432,0.572,0.432,0.951v0.799c0,0.697-0.567,1.265-1.265,1.265c-0.697,0-1.265-0.567-1.265-1.265V26.671z"/>
</g>
</svg>
