<?xml version="1.0" encoding="utf-8"?>
<!-- Generator: Adobe Illustrator 19.1.0, SVG Export Plug-In . SVG Version: 6.00 Build 0)  -->
<svg version="1.1" id="Layer_1" xmlns="http://www.w3.org/2000/svg" xmlns:xlink="http://www.w3.org/1999/xlink" x="0px" y="0px"
	 width="59.909px" height="73.568px" viewBox="0 0 59.909 73.568" enable-background="new 0 0 59.909 73.568" xml:space="preserve">
<path fill="#357EBB" d="M36.583,38.821c-0.122-0.904-1.46-8.713-1.511-9.075c-0.157-1.081-0.982-1.983-2.023-1.967h-0.165
	c-0.271-0.698-0.373-2.519-0.352-3.608c0.007-0.093,0.011-0.187,0.011-0.282c0-1.681-1.156-3.029-2.589-3.029
	c-1.432,0-2.589,1.348-2.589,3.029c0,0.095,0.004,0.189,0.012,0.282c0.02,1.089-0.081,2.911-0.352,3.608H26.86
	c-1.041-0.016-1.866,0.885-2.023,1.967c-0.051,0.362-1.389,8.171-1.511,9.075c-0.06,0.444,0.09,0.985,0.74,1.205
	c0.263,0.089,0.561,0.042,0.801-0.096c0.24-0.139,0.415-0.362,0.487-0.63l0.004-0.013l1.592-7.782
	c0.021-0.075,0.041-0.104,0.048-0.113c0.002,0,0.004,0,0.008,0c0.027,0,0.049,0.022,0.049,0.049l0,0.011
	c0.001,0.034,0.337,2.509,0.337,3.165c0,0.543-2.236,9.388-2.236,10.18s0.877,1.051,1.421,1.051l0.148,0.005l-0.417,6.353
	c-0.001,0.008-0.001,0.016-0.001,0.023c0,0.264,0.217,0.479,0.484,0.479h1.798c0.264,0,0.479-0.211,0.483-0.472l0.406-6.23h0.477
	h0.477l0.406,6.23c0.004,0.261,0.219,0.472,0.483,0.472h1.798c0.267,0,0.484-0.215,0.484-0.479c0-0.008,0-0.016-0.001-0.023
	l-0.417-6.353l0.148-0.005c0.544,0,1.421-0.259,1.421-1.051s-2.236-9.637-2.236-10.18c0-0.656,0.336-3.131,0.337-3.165l0-0.011
	c0-0.027,0.022-0.049,0.049-0.049c0.003,0,0.006,0,0.008,0c0.007,0.009,0.027,0.039,0.048,0.113l1.592,7.782l0.004,0.013
	c0.072,0.268,0.246,0.491,0.487,0.63c0.24,0.139,0.538,0.185,0.801,0.096C36.493,39.805,36.643,39.264,36.583,38.821z M28.454,23.85
	c0-0.028,0.001-0.055,0.002-0.082c1.393-0.017,1.995-0.346,2.255-0.624c0.116-0.124,0.194-0.266,0.231-0.422
	c0.314,0.275,0.512,0.679,0.512,1.128v0.948c0,0.827-0.673,1.5-1.501,1.5s-1.501-0.673-1.501-1.5V23.85z"/>
</svg>
