<?xml version="1.0" encoding="UTF-8" standalone="no"?>
<!-- Created with Inkscape (http://www.inkscape.org/) -->

<svg
   xmlns:dc="http://purl.org/dc/elements/1.1/"
   xmlns:cc="http://creativecommons.org/ns#"
   xmlns:rdf="http://www.w3.org/1999/02/22-rdf-syntax-ns#"
   xmlns:svg="http://www.w3.org/2000/svg"
   xmlns="http://www.w3.org/2000/svg"
   version="1.1"
   width="100%"
   height="100%"
   viewBox="0 0 96 96"
   id="Capa_1"
   xml:space="preserve"><metadata
   id="metadata3125"><rdf:RDF><cc:Work
       rdf:about=""><dc:format>image/svg+xml</dc:format><dc:type
         rdf:resource="http://purl.org/dc/dcmitype/StillImage" /><dc:title></dc:title></cc:Work></rdf:RDF></metadata><defs
   id="defs3123" />
<g
   id="g3087">
	<path
   d="M 48,0 C 21.49,0 0,21.49 0,48 0,74.51 21.49,96 48,96 74.51,96 96,74.51 96,48 96,21.49 74.51,0 48,0 z m -37.026,35.129 24.352,10.9 7.628,3.344 5.657,2.569 4.631,1.973 c 0.857,0.744 1.285,1.713 1.285,2.914 0,1.716 -0.588,2.944 -1.758,3.685 -1.172,0.744 -2.586,1.116 -4.243,1.116 -4.001,0 -7.572,-1.457 -10.715,-4.371 l -6.599,6.685 c 4.398,3.771 9.257,5.688 14.569,5.742 v 7.374 h 5.573 v -7.374 c 3.312,-0.283 6.186,-1.385 8.615,-3.3 2.426,-1.914 3.956,-4.384 4.584,-7.414 l 17.793,7.926 C 75.674,78.999 62.797,87.2 47.999,87.2 26.35,87.2 8.8,69.649 8.8,48 8.8,43.489 9.571,39.161 10.974,35.129 z M 61.556,47.315 53.84,43.886 49.64,42 43.554,39.257 c -0.286,-0.399 -0.429,-0.799 -0.429,-1.198 0,-1.371 0.586,-2.344 1.758,-2.914 1.17,-0.573 2.499,-0.859 3.984,-0.859 2.802,0 5.544,0.945 8.229,2.828 l 6.258,-6.428 c -3.6,-2.744 -7.6,-4.228 -12,-4.457 v -7.37 h -5.573 v 7.37 c -2.972,0.171 -5.572,1.018 -7.8,2.528 -2.228,1.516 -3.743,3.528 -4.542,6.043 L 15.161,26.603 C 22.158,15.888 34.247,8.8 47.999,8.8 c 21.65,0 39.2,17.551 39.2,39.2 0,3.514 -0.469,6.916 -1.336,10.156 L 61.556,47.315 z"
   id="path3089" />
</g>
<g
   id="g3091">
</g>
<g
   id="g3093">
</g>
<g
   id="g3095">
</g>
<g
   id="g3097">
</g>
<g
   id="g3099">
</g>
<g
   id="g3101">
</g>
<g
   id="g3103">
</g>
<g
   id="g3105">
</g>
<g
   id="g3107">
</g>
<g
   id="g3109">
</g>
<g
   id="g3111">
</g>
<g
   id="g3113">
</g>
<g
   id="g3115">
</g>
<g
   id="g3117">
</g>
<g
   id="g3119">
</g>
</svg>