<?xml version="1.0" encoding="utf-8"?>
<!-- Generator: Adobe Illustrator 19.1.0, SVG Export Plug-In . SVG Version: 6.00 Build 0)  -->
<svg version="1.1" id="Layer_1" xmlns="http://www.w3.org/2000/svg" xmlns:xlink="http://www.w3.org/1999/xlink" x="0px" y="0px"
	 width="59.909px" height="73.568px" viewBox="0 0 59.909 73.568" enable-background="new 0 0 59.909 73.568" xml:space="preserve">
<g>
	<g>
		<path fill="#357EBB" d="M28.104,36.217l0.99-0.99c-0.028-0.016-0.056-0.029-0.086-0.036c-1.856-0.459-1.856-1.49-1.856-1.829
			c0-2.407,0.8-3.628,2.377-3.628c0.996,0,2.384,0.231,2.932,2.232c0.003,0.009,0.004,0.017,0.007,0.027l0.969-0.969
			c-0.01-0.022-0.015-0.047-0.025-0.068l-0.014-0.029l0.004-0.005c-0.734-1.595-2.073-2.438-3.874-2.438
			c-2.305,0-3.627,1.778-3.627,4.878C25.901,34.701,26.663,35.687,28.104,36.217z"/>
		<path fill="#357EBB" d="M32.159,36.858c-0.057,0.168-0.119,0.338-0.191,0.519c-0.567,1.411-1.434,2.539-2.648,3.449
			c-0.139,0.104-0.229,0.257-0.253,0.429s0.02,0.343,0.124,0.48c0.072,0.098,0.169,0.172,0.28,0.215
			c0.21,0.084,0.447,0.053,0.63-0.084c1.421-1.065,2.427-2.375,3.074-4.004c0.359-0.904,0.575-1.809,0.643-2.663L32.159,36.858z"/>
	</g>
	
		<rect x="18.145" y="36.05" transform="matrix(0.7071 -0.7071 0.7071 0.7071 -17.2368 31.9556)" fill="#357EBB" width="23.62" height="1.468"/>
	<g>
		<path fill="#357EBB" d="M26.357,38.103l0.943-0.943c-1.828-0.722-2.663-2.383-2.663-3.799c0-5.868,4.08-6.037,4.545-6.037
			c1.752,0,3.148,0.544,4.149,1.618c0.366,0.393,0.643,0.843,0.879,1.309l1.024-1.024c-0.244-0.424-0.514-0.817-0.827-1.153
			c-1.225-1.313-2.982-1.979-5.224-1.979c-3.691,0-5.725,2.602-5.725,7.325C23.457,35.475,24.589,37.273,26.357,38.103z"/>
		<path fill="#357EBB" d="M35.103,33.913c0.035,0.659,0.021,1.239-0.006,1.633c-0.121,1.719-0.576,3.113-1.39,4.264
			c-0.36,0.511-0.755,0.994-1.137,1.462l-0.242,0.297c-0.659,0.812-1.123,1.539-1.504,2.357l-0.491,1.023
			c-0.443,0.808-1.234,1.306-2.067,1.306c-1.526,0-1.821-1.188-1.962-1.759c-0.014-0.057-0.026-0.107-0.039-0.15
			c-0.102-0.367-0.42-0.465-0.592-0.465c-0.296,0-0.602,0.24-0.602,0.642c0.002,0.379,0.118,0.726,0.131,0.764
			c0.47,1.369,1.615,2.187,3.064,2.187c1.298,0,2.483-0.754,3.17-2.016l0.491-1.021c0.337-0.722,0.751-1.369,1.344-2.101
			l0.241-0.296c0.335-0.409,0.793-0.968,1.188-1.528c1.024-1.447,1.583-3.013,1.708-4.783c0.076-1.084,0.041-2.097-0.082-3.038
			L35.103,33.913z"/>
	</g>
</g>
</svg>
