<?xml version="1.0" encoding="utf-8"?>
<!-- Generator: Adobe Illustrator 19.1.0, SVG Export Plug-In . SVG Version: 6.00 Build 0)  -->
<svg version="1.1" id="Layer_1" xmlns="http://www.w3.org/2000/svg" xmlns:xlink="http://www.w3.org/1999/xlink" x="0px" y="0px"
	 width="59.909px" height="73.568px" viewBox="0 0 59.909 73.568" enable-background="new 0 0 59.909 73.568" xml:space="preserve">
<g>
	<g>
		<path fill="#357EBB" d="M24.609,31.783c0.988,0,1.792-0.804,1.792-1.792v-0.812c0-0.988-0.804-1.792-1.792-1.792
			s-1.792,0.804-1.792,1.792v0.812C22.817,30.979,23.621,31.783,24.609,31.783z"/>
		<path fill="#357EBB" d="M29.354,38.239l-0.005-0.015c-0.178-0.461-1.797-4.55-1.813-4.591l-0.005-0.011
			c-0.301-0.669-0.518-1.153-1.208-1.118h-3.504c-0.69-0.036-0.907,0.449-1.208,1.118l-0.005,0.011
			c-0.016,0.041-1.635,4.13-1.813,4.591l-0.005,0.015c-0.111,0.35,0.084,0.725,0.434,0.836c0.07,0.022,0.14,0.033,0.209,0.033
			c0.24,0,0.46-0.132,0.584-0.363c0.056-0.105,1.308-2.398,1.779-3.26c-0.081,0.707-0.246,2.15-0.289,2.653
			c-0.012,0.029-0.02,0.059-0.022,0.092l-0.38,7.533c0,0.005,0,0.009,0,0.014c0,0.223,0.183,0.405,0.407,0.405h1.341
			c0.221,0,0.401-0.176,0.406-0.395l0.309-5.612c0-0.005,0.01-0.01,0.01-0.015c0,0.006,0,0.012,0.001,0.018l0.371,5.611
			c0.006,0.218,0.186,0.393,0.406,0.393h1.341c0.225,0,0.407-0.181,0.407-0.405c0-0.005,0-0.011,0-0.016l-0.442-7.533
			c-0.002-0.032-0.01-0.062-0.022-0.089c-0.044-0.503-0.208-1.946-0.289-2.653c0.47,0.862,1.723,3.156,1.779,3.26
			c0.159,0.297,0.477,0.43,0.793,0.33C29.27,38.964,29.464,38.589,29.354,38.239z"/>
	</g>
	<g>
		<path fill="#357EBB" d="M32.83,31.009c0.329,0,0.628-0.13,0.849-0.34c0.268,0.653,0.91,1.114,1.658,1.114
			c0.747,0,1.389-0.46,1.657-1.111c0.221,0.208,0.518,0.337,0.846,0.337c0.143,0,0.259-0.116,0.259-0.259
			c0-0.143-0.116-0.259-0.259-0.259c-0.363,0-0.663-0.271-0.711-0.62v-0.692c0-0.988-0.804-1.792-1.792-1.792
			c-0.988,0-1.792,0.804-1.792,1.792v0.65c-0.029,0.37-0.338,0.663-0.716,0.663c-0.143,0-0.259,0.116-0.259,0.259
			C32.572,30.893,32.687,31.009,32.83,31.009z"/>
		<path fill="#357EBB" d="M40.122,38.239l-0.005-0.015c-0.178-0.461-1.797-4.55-1.813-4.591l-0.005-0.011
			c-0.301-0.669-0.517-1.153-1.208-1.118h-3.505c-0.691-0.036-0.907,0.449-1.208,1.118l-0.005,0.011
			c-0.016,0.041-1.635,4.13-1.813,4.591l-0.005,0.015c-0.054,0.17-0.038,0.35,0.044,0.508c0.082,0.158,0.22,0.274,0.39,0.328
			c0.315,0.1,0.634-0.033,0.793-0.33c0.053-0.1,1.238-2.27,1.717-3.147c-0.312,1.497-1.113,5.36-1.127,5.673l0,0.069
			c0,0.362,0.294,0.656,0.656,0.656h0.017l-0.205,3.765c0,0.005,0,0.01,0,0.015c0,0.223,0.183,0.405,0.407,0.405h1.341
			c0.221,0,0.401-0.176,0.407-0.394l0.23-3.79h0.231l0.23,3.79c0.006,0.218,0.186,0.394,0.407,0.394h1.341
			c0.225,0,0.407-0.181,0.407-0.405c0-0.005,0-0.01,0-0.015l-0.205-3.765h0.017c0.362,0,0.656-0.294,0.656-0.656l0-0.069
			c-0.014-0.313-0.815-4.176-1.127-5.673c1.44,2.637,1.695,3.106,1.717,3.147c0.159,0.297,0.477,0.43,0.793,0.33
			c0.17-0.054,0.308-0.17,0.39-0.328C40.16,38.589,40.176,38.408,40.122,38.239z"/>
	</g>
</g>
</svg>
