<?xml version="1.0" encoding="utf-8"?>
<!-- Generator: Adobe Illustrator 19.1.0, SVG Export Plug-In . SVG Version: 6.00 Build 0)  -->
<svg version="1.1" id="Layer_1" xmlns="http://www.w3.org/2000/svg" xmlns:xlink="http://www.w3.org/1999/xlink" x="0px" y="0px"
	 width="59.909px" height="73.568px" viewBox="0 0 59.909 73.568" enable-background="new 0 0 59.909 73.568" xml:space="preserve">
<g>
	<path fill="#357EBB" d="M36.905,32.872c0.625,1.133,0.982,2.433,0.982,3.816c0,4.373-3.559,7.932-7.933,7.932
		c-1.383,0-2.682-0.357-3.815-0.982l-0.981,0.981c1.402,0.851,3.04,1.35,4.797,1.35c5.118,0,9.282-4.163,9.282-9.281
		c0-1.757-0.5-3.395-1.351-4.797L36.905,32.872z"/>
	<g>
		<path fill="#357EBB" d="M23.781,41.657c-1.098-1.361-1.759-3.089-1.759-4.969c0-4.374,3.559-7.933,7.932-7.933
			c1.881,0,3.609,0.661,4.97,1.759l0.96-0.96c-1.609-1.34-3.677-2.149-5.93-2.149c-5.118,0-9.282,4.164-9.282,9.282
			c0,2.253,0.808,4.32,2.148,5.929L23.781,41.657z"/>
		<path fill="#357EBB" d="M32.467,41.375c0,0-0.578,0.455-1.87,0.455c-0.44,0-1.711-0.036-2.724-1.04l2.379-2.379h1.762
			c0.235,0,0.45-0.132,0.557-0.342l0.227-0.449c0.101-0.2,0-0.363-0.223-0.363h-1.168l7.795-7.796l-1.038-1.038l-6.542,6.543h-4.988
			c0.646-3.054,3.246-3.372,4.09-3.372c1.166,0,1.785,0.508,1.785,0.508c0.275,0.148,0.553,0.019,0.619-0.286l0.052-0.241
			c0.066-0.305-0.116-0.651-0.405-0.77c0,0-0.732-0.419-2.017-0.419c-3.848,0-5.217,2.616-5.617,4.58h-0.508
			c-0.236,0-0.451,0.133-0.557,0.343l-0.225,0.448c-0.101,0.2,0,0.363,0.224,0.363h0.928c-0.002,0.057-0.006,0.119-0.006,0.172
			c0,0.337,0.014,0.657,0.037,0.965h-0.556c-0.239,0-0.458,0.137-0.562,0.353l-0.21,0.435c-0.097,0.201,0.006,0.366,0.23,0.366
			h1.254c0.167,0.866,0.442,1.588,0.799,2.188l-4.527,4.527l1.038,1.038l4.437-4.437c1.027,0.916,2.361,1.312,3.796,1.312
			c0.864,0,1.7-0.283,1.7-0.283c0.297-0.095,0.54-0.428,0.54-0.74v-0.331C32.972,41.372,32.745,41.233,32.467,41.375z
			 M26.503,36.119h3.964l-1.137,1.137h-2.812c-0.018-0.25-0.032-0.505-0.032-0.782C26.486,36.349,26.498,36.238,26.503,36.119z
			 M26.677,38.41h1.499l-1.139,1.139C26.892,39.219,26.769,38.843,26.677,38.41z"/>
	</g>
</g>
</svg>
