<?xml version="1.0" encoding="utf-8"?>
<!-- Generator: Adobe Illustrator 19.1.0, SVG Export Plug-In . SVG Version: 6.00 Build 0)  -->
<svg version="1.1" id="Layer_1" xmlns="http://www.w3.org/2000/svg" xmlns:xlink="http://www.w3.org/1999/xlink" x="0px" y="0px"
	 width="59.909px" height="73.568px" viewBox="0 0 59.909 73.568" enable-background="new 0 0 59.909 73.568" xml:space="preserve">
<g>
	<path fill="#C000FF" d="M41.401,42.304l-0.006-0.02c-0.052,0.016-5.317,1.498-11.27-0.011c-5.784-1.467-9.781-0.809-11.616-0.305
		v2.821c0.326-0.135,4.166-1.631,10.955,0.092c2.253,0.571,4.407,0.762,6.279,0.762c2.58,0,4.621-0.362,5.658-0.591V42.304z"/>
	<path fill="#005CFF" d="M41.401,39.614l-0.006-0.02c-0.052,0.017-5.317,1.498-11.27-0.011c-5.784-1.467-9.781-0.809-11.616-0.305
		v2.821c0.326-0.135,4.166-1.63,10.955,0.092c2.253,0.571,4.407,0.762,6.279,0.762c2.58,0,4.621-0.362,5.658-0.591V39.614z"/>
	<path fill="#00FF30" d="M41.401,36.924l-0.006-0.02c-0.052,0.017-5.317,1.497-11.27-0.011c-5.784-1.467-9.781-0.809-11.616-0.305
		v2.821c0.326-0.135,4.166-1.631,10.955,0.092c2.253,0.571,4.407,0.762,6.279,0.762c2.58,0,4.621-0.362,5.658-0.591V36.924z"/>
	<path fill="#FFFF00" d="M41.401,34.234l-0.006-0.02c-0.052,0.017-5.317,1.498-11.27-0.011c-5.784-1.467-9.781-0.808-11.616-0.305
		v2.821c0.326-0.135,4.166-1.631,10.955,0.092c2.253,0.571,4.407,0.762,6.279,0.762c2.58,0,4.621-0.362,5.658-0.591V34.234z"/>
	<path fill="#FF8B00" d="M41.401,31.544l-0.006-0.02c-0.052,0.016-5.317,1.497-11.27-0.011c-5.784-1.467-9.781-0.809-11.616-0.305
		v2.821c0.326-0.135,4.166-1.63,10.955,0.092c2.253,0.571,4.407,0.762,6.279,0.762c2.58,0,4.621-0.362,5.658-0.591V31.544z"/>
	<path fill="#FF0000" d="M41.401,28.854l-0.006-0.02c-0.052,0.017-5.317,1.498-11.27-0.011c-5.784-1.467-9.781-0.809-11.616-0.305
		v2.821c0.326-0.136,4.166-1.631,10.955,0.092c2.253,0.571,4.407,0.762,6.279,0.762c2.58,0,4.621-0.362,5.658-0.591V28.854z"/>
</g>
</svg>
