<?xml version="1.0" encoding="utf-8"?>
<!-- Generator: Adobe Illustrator 19.1.0, SVG Export Plug-In . SVG Version: 6.00 Build 0)  -->
<svg version="1.1" id="Layer_1" xmlns="http://www.w3.org/2000/svg" xmlns:xlink="http://www.w3.org/1999/xlink" x="0px" y="0px"
	 width="59.909px" height="73.568px" viewBox="0 0 59.909 73.568" enable-background="new 0 0 59.909 73.568" xml:space="preserve">
<g>
	<path fill="#357EBB" d="M29.955,26.196c1.25,0,2.266-1.017,2.266-2.266v-1.056c0-1.25-1.017-2.266-2.266-2.266
		c-1.25,0-2.266,1.017-2.266,2.266v1.056C27.688,25.179,28.705,26.196,29.955,26.196z"/>
	<path fill="#357EBB" d="M35.924,29.417c-0.004-1.354-1.107-2.455-2.462-2.455h-1.559l-0.181,0.275
		c-0.013,0.02-0.324,0.492-0.699,0.975c-0.516,0.667-0.866,0.991-1.069,0.991c-0.204,0-0.553-0.324-1.069-0.991
		c-0.374-0.484-0.685-0.955-0.699-0.975l-0.181-0.275h-1.559c-1.355,0-2.458,1.101-2.462,2.455l-0.611,10.538l0,0.014
		c0,0.573,0.466,1.039,1.039,1.039c0.569,0,1.033-0.46,1.039-1.027l0.692-8.151l0.001-0.021c0-0.082,0.067-0.148,0.148-0.148
		c0.082,0,0.148,0.067,0.148,0.153l0.108,5.524c-0.027,0.042-0.043,0.09-0.046,0.143l-0.818,14.932c0,0.005,0,0.011,0,0.016
		c0,0.293,0.241,0.532,0.537,0.532h2.393c0.292,0,0.53-0.234,0.535-0.522l0.607-11.761c0-0.005,0-0.01,0-0.015
		c0-0.109,0.089-0.198,0.199-0.198c0.11,0,0.199,0.089,0.199,0.198c0,0.005,0,0.01,0,0.015l0.607,11.761
		c0.005,0.289,0.243,0.522,0.535,0.522h2.393c0.296,0,0.537-0.239,0.537-0.532c0-0.005,0-0.011,0-0.016l-0.818-14.932
		c-0.003-0.053-0.02-0.101-0.046-0.143l0.108-5.529c0-0.082,0.067-0.148,0.148-0.148c0.082,0,0.148,0.067,0.148,0.148v0.01
		l0.692,8.161c0.006,0.568,0.47,1.027,1.039,1.027c0.573,0,1.039-0.466,1.039-1.039v-0.007L35.924,29.417z"/>
</g>
</svg>
