<?xml version="1.0" encoding="utf-8"?>
<!-- Generator: Adobe Illustrator 19.1.0, SVG Export Plug-In . SVG Version: 6.00 Build 0)  -->
<svg version="1.1" id="Layer_1" xmlns="http://www.w3.org/2000/svg" xmlns:xlink="http://www.w3.org/1999/xlink" x="0px" y="0px"
	 width="59.909px" height="73.568px" viewBox="0 0 59.909 73.568" enable-background="new 0 0 59.909 73.568" xml:space="preserve">
<g>
	<g>
		<path fill="#357EBB" d="M19.221,37.708l0,3.43h-3.43c-0.036,0-0.064,0.029-0.064,0.064v1.535c0,0.036,0.029,0.064,0.064,0.064
			h3.431l-0.002,7.235c0,0.036,0.029,0.064,0.064,0.064h1.534c0.036,0,0.064-0.029,0.064-0.064l0.002-7.235h3.428
			c0.036,0,0.064-0.029,0.064-0.064v-1.535c0-0.036-0.029-0.064-0.064-0.064h-3.428l-0.001-3.43c0-0.036-0.029-0.064-0.064-0.064
			h-1.534C19.25,37.644,19.221,37.672,19.221,37.708z"/>
	</g>
	<g>
		<g>
			<path fill="#357EBB" d="M28.444,22.028c-3.437,0.065-6.206,2.875-6.206,6.328c0,3.494,2.836,6.33,6.329,6.33
				c1.633,0,3.123-0.62,4.246-1.638c-0.792,0.455-1.71,0.715-2.689,0.715c-2.983,0-5.403-2.42-5.403-5.404
				c0-2.983,2.42-5.404,5.403-5.404c0.986,0,1.911,0.264,2.707,0.726c-1.125-1.027-2.622-1.654-4.264-1.654
				C28.526,22.028,28.484,22.027,28.444,22.028"/>
		</g>
		<polygon fill="#357EBB" points="32.831,26.432 33.342,27.856 34.855,27.903 33.659,28.829 34.082,30.282 32.831,29.43 
			31.58,30.282 32.004,28.829 30.807,27.903 32.32,27.856 		"/>
	</g>
	<path fill="#357EBB" d="M41.965,43.973l2.217-3.84h-4.434l-2.152-3.728l-2.152,3.728H31.01l2.217,3.84l-2.217,3.84h4.434
		l2.152,3.728l2.152-3.728h4.434L41.965,43.973z M42.326,41.205l-0.979,1.696l-0.979-1.696H42.326z M40.728,43.973L39.13,46.74
		h-3.068l-1.598-2.768l1.598-2.768h3.068L40.728,43.973z M37.596,38.548l0.915,1.585h-1.83L37.596,38.548z M32.866,41.205h1.959
		l-0.979,1.696L32.866,41.205z M32.866,46.74l0.979-1.696l0.979,1.696H32.866z M37.596,49.398l-0.915-1.585h1.83L37.596,49.398z
		 M41.346,45.044l0.979,1.696h-1.958L41.346,45.044z"/>
</g>
</svg>
