<?xml version="1.0" encoding="utf-8"?>
<!-- Generator: Adobe Illustrator 19.1.0, SVG Export Plug-In . SVG Version: 6.00 Build 0)  -->
<svg version="1.1" id="Layer_1" xmlns="http://www.w3.org/2000/svg" xmlns:xlink="http://www.w3.org/1999/xlink" x="0px" y="0px"
	 width="59.909px" height="73.568px" viewBox="0 0 59.909 73.568" enable-background="new 0 0 59.909 73.568" xml:space="preserve">
<g>
	
		<rect x="18.117" y="36.05" transform="matrix(0.7071 -0.7071 0.7071 0.7071 -17.2448 31.9362)" fill="#357EBB" width="23.62" height="1.468"/>
	<path fill="#357EBB" d="M24.25,40.32c-2.114-1.235-3.73-2.793-4.431-3.54c0.944-1.005,3.522-3.504,6.778-4.671
		c-1.451,1.045-2.4,2.745-2.4,4.671c0,1.033,0.288,1.99,0.766,2.826l8.776-8.776c-1.183-0.418-2.451-0.691-3.785-0.691
		c-6.344,0-11.353,5.956-11.564,6.21l-0.357,0.431l0.357,0.431c0.127,0.153,2.012,2.363,4.863,4.105L24.25,40.32z"/>
	<path fill="#357EBB" d="M41.518,36.349c-0.127-0.153-2.009-2.361-4.858-4.102l-0.996,0.996c2.111,1.235,3.725,2.791,4.426,3.537
		c-0.944,1.005-3.521,3.504-6.778,4.67c1.451-1.045,2.4-2.745,2.4-4.671c0-1.031-0.286-1.987-0.763-2.822l-8.774,8.773
		c1.181,0.417,2.448,0.688,3.779,0.688c6.344,0,11.353-5.956,11.564-6.209l0.357-0.431L41.518,36.349z"/>
</g>
</svg>
