<?xml version="1.0" encoding="utf-8"?>
<!-- Generator: Adobe Illustrator 19.1.0, SVG Export Plug-In . SVG Version: 6.00 Build 0)  -->
<svg version="1.1" id="Layer_1" xmlns="http://www.w3.org/2000/svg" xmlns:xlink="http://www.w3.org/1999/xlink" x="0px" y="0px"
	 width="59.909px" height="73.568px" viewBox="0 0 59.909 73.568" enable-background="new 0 0 59.909 73.568" xml:space="preserve">
<path fill="#357EBB" d="M28.04,33.676c-0.394,0.117-0.715,0.332-0.963,0.647c-0.248,0.313-0.372,0.681-0.372,1.104
	c0,0.088,0.011,0.193,0.033,0.317c0.021,0.124,0.073,0.263,0.153,0.416c0.08,0.154,0.2,0.314,0.361,0.482
	c0.16,0.168,0.379,0.332,0.656,0.492l3.983,2.232c0.38-0.16,0.693-0.386,0.941-0.678c0.248-0.292,0.372-0.664,0.372-1.116
	c0-0.321-0.102-0.621-0.306-0.898c-0.205-0.276-0.613-0.583-1.225-0.919L28.04,33.676z M32.11,30.678
	c-0.029-0.612-0.223-1.127-0.58-1.542c-0.357-0.416-0.85-0.624-1.477-0.624c-0.452,0-0.864,0.149-1.236,0.448
	c-0.373,0.3-0.559,0.697-0.559,1.194c0,0.349,0.106,0.66,0.318,0.929c0.211,0.271,0.485,0.526,0.821,0.766
	c0.335,0.241,0.722,0.468,1.159,0.679c0.438,0.212,0.883,0.434,1.335,0.667c0.452,0.234,0.898,0.481,1.335,0.744
	c0.438,0.262,0.832,0.558,1.182,0.886c0.35,0.329,0.631,0.697,0.842,1.106c0.212,0.408,0.318,0.875,0.318,1.4
	c0,0.35-0.063,0.69-0.187,1.018c-0.124,0.328-0.288,0.631-0.492,0.908c-0.204,0.277-0.448,0.525-0.733,0.744
	c-0.284,0.219-0.587,0.379-0.908,0.482c0.394,0.335,0.693,0.718,0.897,1.148c0.204,0.431,0.307,0.982,0.307,1.652
	c0,0.613-0.121,1.153-0.362,1.62c-0.24,0.466-0.561,0.857-0.962,1.171c-0.402,0.313-0.861,0.55-1.379,0.71
	c-0.518,0.162-1.061,0.242-1.63,0.242c-0.672,0-1.291-0.099-1.861-0.296c-0.568-0.197-1.061-0.486-1.477-0.864
	c-0.415-0.38-0.747-0.846-0.995-1.401s-0.38-1.196-0.394-1.926h2.363c0.059,0.774,0.27,1.386,0.635,1.838
	c0.365,0.452,0.919,0.679,1.663,0.679c0.554,0,1.01-0.135,1.368-0.405c0.357-0.27,0.536-0.726,0.536-1.368
	c0-0.393-0.11-0.748-0.328-1.061c-0.219-0.314-0.504-0.598-0.854-0.854c-0.35-0.254-0.751-0.499-1.204-0.733
	c-0.452-0.232-0.911-0.474-1.378-0.722c-0.481-0.233-0.952-0.488-1.412-0.765c-0.459-0.278-0.868-0.584-1.225-0.92
	c-0.358-0.335-0.649-0.707-0.875-1.115c-0.227-0.409-0.34-0.876-0.34-1.402c0-0.816,0.212-1.487,0.635-2.012
	c0.423-0.526,0.999-0.942,1.729-1.248c-0.321-0.336-0.558-0.67-0.711-1.006c-0.154-0.336-0.23-0.737-0.23-1.204
	c0-0.584,0.127-1.105,0.383-1.565c0.255-0.46,0.583-0.846,0.984-1.16c0.402-0.314,0.861-0.554,1.379-0.722
	c0.518-0.168,1.04-0.252,1.565-0.252c0.627,0,1.207,0.096,1.74,0.285c0.532,0.19,0.995,0.463,1.389,0.821
	c0.394,0.357,0.704,0.791,0.93,1.301c0.226,0.511,0.339,1.087,0.339,1.729H32.11z"/>
</svg>
