<?xml version="1.0" encoding="utf-8"?>
<!-- Generator: Adobe Illustrator 19.1.0, SVG Export Plug-In . SVG Version: 6.00 Build 0)  -->
<svg version="1.1" id="Layer_1" xmlns="http://www.w3.org/2000/svg" xmlns:xlink="http://www.w3.org/1999/xlink" x="0px" y="0px"
	 width="59.909px" height="73.568px" viewBox="0 0 59.909 73.568" enable-background="new 0 0 59.909 73.568" xml:space="preserve">
<g>
	<g>
		<path fill="#357EBB" d="M32.57,28.132c-0.148,0-0.293-0.073-0.379-0.207c-0.493-0.769-1.33-1.228-2.239-1.228
			c-0.907,0-1.742,0.456-2.234,1.222c-0.134,0.208-0.414,0.27-0.622,0.134c-0.209-0.134-0.269-0.413-0.135-0.622
			c0.659-1.022,1.777-1.634,2.991-1.634c1.217,0,2.337,0.614,2.997,1.642c0.134,0.21,0.073,0.488-0.136,0.622
			C32.737,28.109,32.653,28.132,32.57,28.132z M34.398,26.521c-0.138,0-0.274-0.063-0.362-0.183
			c-0.957-1.291-2.483-2.062-4.083-2.062c-1.616,0-3.099,0.746-4.07,2.047c-0.148,0.198-0.431,0.24-0.629,0.091
			c-0.199-0.148-0.24-0.431-0.091-0.63c1.125-1.508,2.917-2.408,4.791-2.408c1.884,0,3.681,0.907,4.807,2.428
			c0.148,0.199,0.106,0.481-0.094,0.629C34.585,26.491,34.49,26.521,34.398,26.521z M36.232,24.868
			c-0.133,0-0.265-0.059-0.354-0.172c-1.443-1.832-3.603-2.883-5.925-2.883c-2.319,0-4.477,1.049-5.921,2.878
			c-0.153,0.196-0.437,0.228-0.632,0.075c-0.195-0.154-0.229-0.438-0.074-0.632c1.615-2.048,4.031-3.222,6.627-3.222
			c2.6,0,5.017,1.176,6.632,3.227c0.154,0.195,0.12,0.478-0.075,0.632C36.427,24.837,36.329,24.868,36.232,24.868z"/>
	</g>
	<path fill="#357EBB" d="M34.287,31.265h-8.665c-0.701,0-1.269,0.568-1.269,1.269v18.851c0,0.701,0.568,1.269,1.269,1.269h8.665
		c0.701,0,1.269-0.568,1.269-1.269V32.535C35.557,31.834,34.988,31.265,34.287,31.265z M29.955,51.347
		c-0.422,0-0.764-0.342-0.764-0.764s0.342-0.764,0.764-0.764s0.764,0.342,0.764,0.764S30.377,51.347,29.955,51.347z M34.656,48.289
		c0,0.095-0.077,0.171-0.171,0.171h-9.061c-0.095,0-0.171-0.077-0.171-0.171V35.534c0-0.095,0.077-0.171,0.171-0.171h9.061
		c0.095,0,0.171,0.077,0.171,0.171V48.289z"/>
</g>
</svg>
