<?xml version="1.0" encoding="utf-8"?>
<!-- Generator: Adobe Illustrator 19.1.0, SVG Export Plug-In . SVG Version: 6.00 Build 0)  -->
<svg version="1.1" id="Layer_1" xmlns="http://www.w3.org/2000/svg" xmlns:xlink="http://www.w3.org/1999/xlink" x="0px" y="0px"
	 width="59.909px" height="73.568px" viewBox="0 0 59.909 73.568" enable-background="new 0 0 59.909 73.568" xml:space="preserve">
<g>
	<g>
		<path fill="#357EBB" d="M19.099,29.854l0.001,4.495h-4.495c-0.104,0-0.188,0.084-0.188,0.188v4.494
			c0,0.104,0.084,0.188,0.188,0.188h4.499l-0.005,4.495c0,0.104,0.084,0.188,0.188,0.188h4.493c0.104,0,0.188-0.084,0.188-0.188
			l0.005-4.495h4.489c0.104,0,0.188-0.084,0.188-0.188v-4.494c0-0.104-0.084-0.188-0.188-0.188h-4.49l-0.004-4.495
			c0-0.104-0.084-0.188-0.188-0.188h-4.493C19.183,29.666,19.099,29.75,19.099,29.854z"/>
	</g>
	<g>
		<path fill="#357EBB" d="M40.102,29.008c-4.223,0.08-7.625,3.533-7.625,7.775c0,4.293,3.484,7.777,7.777,7.777
			c2.007,0,3.837-0.762,5.217-2.012c-0.973,0.559-2.101,0.879-3.303,0.879c-3.665,0-6.639-2.974-6.639-6.639
			c0-3.666,2.974-6.639,6.639-6.639c1.212,0,2.348,0.325,3.326,0.892c-1.383-1.262-3.221-2.033-5.239-2.033
			C40.203,29.008,40.152,29.007,40.102,29.008"/>
	</g>
</g>
</svg>
