<?xml version="1.0" encoding="utf-8"?>
<!-- Generator: Adobe Illustrator 19.1.0, SVG Export Plug-In . SVG Version: 6.00 Build 0)  -->
<svg version="1.1" id="Layer_1" xmlns="http://www.w3.org/2000/svg" xmlns:xlink="http://www.w3.org/1999/xlink" x="0px" y="0px"
	 width="59.909px" height="73.568px" viewBox="0 0 59.909 73.568" enable-background="new 0 0 59.909 73.568" xml:space="preserve">
<g>
	<path fill="#357EBB" d="M14.031,28.279l-2.692,7.016h1.267l0.658-1.857h2.801l0.658,1.857h1.317l-2.702-7.016H14.031z
		 M13.598,32.504l1.061-3.017h0.03l1.052,3.017H13.598z"/>
	<path fill="#357EBB" d="M23.445,31.531v-0.02c0.321-0.137,0.568-0.333,0.742-0.585c0.173-0.252,0.261-0.555,0.261-0.909
		c0-0.583-0.19-1.018-0.57-1.307c-0.38-0.288-0.885-0.432-1.513-0.432h-3.41v7.016h3.223c0.452,0,0.842-0.051,1.169-0.152
		c0.328-0.102,0.596-0.239,0.806-0.413c0.21-0.174,0.364-0.38,0.462-0.62c0.098-0.239,0.148-0.496,0.148-0.771
		c0-0.478-0.112-0.876-0.334-1.194C24.205,31.828,23.877,31.623,23.445,31.531z M20.182,29.281h2.005
		c0.334,0,0.589,0.072,0.766,0.217c0.177,0.144,0.265,0.393,0.265,0.747c0,0.314-0.098,0.555-0.295,0.722
		c-0.197,0.167-0.442,0.25-0.737,0.25h-2.005V29.281z M23.224,34.003c-0.206,0.193-0.496,0.29-0.87,0.29h-2.172v-2.192h2.172
		c0.373,0,0.663,0.094,0.87,0.28c0.207,0.187,0.31,0.454,0.31,0.801C23.533,33.536,23.43,33.809,23.224,34.003z"/>
	<path fill="#357EBB" d="M31.822,33.772c0.154-0.347,0.244-0.73,0.271-1.149h-1.199c-0.026,0.255-0.082,0.495-0.167,0.717
		c-0.085,0.223-0.203,0.417-0.354,0.584c-0.151,0.167-0.331,0.299-0.54,0.393c-0.21,0.096-0.452,0.143-0.727,0.143
		c-0.373,0-0.696-0.075-0.968-0.226c-0.272-0.15-0.493-0.352-0.663-0.604c-0.17-0.252-0.296-0.538-0.378-0.86
		c-0.082-0.32-0.123-0.648-0.123-0.982c0-0.334,0.041-0.662,0.123-0.983s0.208-0.607,0.378-0.86c0.17-0.252,0.391-0.453,0.663-0.604
		c0.272-0.15,0.595-0.226,0.968-0.226c0.255,0,0.48,0.035,0.673,0.104c0.193,0.068,0.362,0.165,0.506,0.29
		c0.144,0.124,0.262,0.272,0.354,0.442c0.092,0.171,0.164,0.357,0.216,0.56h1.229c-0.039-0.38-0.141-0.717-0.305-1.011
		c-0.164-0.295-0.378-0.546-0.644-0.752c-0.265-0.206-0.572-0.364-0.919-0.472c-0.347-0.108-0.718-0.162-1.111-0.162
		c-0.524,0-0.994,0.098-1.41,0.295c-0.416,0.196-0.768,0.462-1.056,0.796c-0.288,0.334-0.51,0.724-0.663,1.169
		c-0.154,0.445-0.231,0.917-0.231,1.415c0,0.504,0.077,0.979,0.231,1.425c0.154,0.445,0.375,0.835,0.663,1.169
		c0.288,0.334,0.64,0.598,1.056,0.791s0.886,0.29,1.41,0.29c0.426,0,0.816-0.069,1.169-0.207c0.354-0.137,0.662-0.332,0.924-0.585
		C31.46,34.419,31.668,34.119,31.822,33.772z"/>
	<path fill="#357EBB" d="M48.504,30.972l-2.844-2.844c-0.089-0.089-0.233-0.089-0.321,0L32.231,41.237
		c-0.049,0.087-1.099,4.078-1.099,4.078c-0.028,0.112,0.074,0.213,0.186,0.186c0,0,3.991-1.05,4.078-1.099l13.109-13.109
		C48.593,31.205,48.593,31.061,48.504,30.972z M32.757,44.694l-0.829-0.829l0.563-2.258l2.524,2.524L32.757,44.694z"/>
</g>
</svg>
