<?xml version="1.0" encoding="utf-8"?>
<!-- Generator: Adobe Illustrator 19.1.0, SVG Export Plug-In . SVG Version: 6.00 Build 0)  -->
<svg version="1.1" id="Layer_1" xmlns="http://www.w3.org/2000/svg" xmlns:xlink="http://www.w3.org/1999/xlink" x="0px" y="0px"
	 width="59.909px" height="73.568px" viewBox="0 0 59.909 73.568" enable-background="new 0 0 59.909 73.568" xml:space="preserve">
<path fill="#357EBB" d="M38.882,29.988c-0.054-0.071-0.135-0.117-0.224-0.125L32.24,29.26c-0.171-0.016-0.32,0.107-0.347,0.277
	c-0.151,0.934-0.961,1.648-1.937,1.648c-0.979,0-1.79-0.716-1.938-1.653c-0.027-0.171-0.176-0.294-0.348-0.277l-6.418,0.609
	c-0.089,0.009-0.17,0.054-0.224,0.125c-0.054,0.071-0.075,0.161-0.06,0.249l0.64,3.581c0.027,0.153,0.16,0.264,0.315,0.264h2.046
	v9.913c0,0.177,0.143,0.32,0.32,0.32h11.333c0.177,0,0.32-0.143,0.32-0.32v-9.913h2.046c0.155,0,0.288-0.111,0.315-0.263l0.64-3.581
	C38.958,30.15,38.936,30.059,38.882,29.988z"/>
</svg>
