<?xml version="1.0" encoding="utf-8"?>
<!-- Generator: Adobe Illustrator 19.1.0, SVG Export Plug-In . SVG Version: 6.00 Build 0)  -->
<svg version="1.1" id="Layer_1" xmlns="http://www.w3.org/2000/svg" xmlns:xlink="http://www.w3.org/1999/xlink" x="0px" y="0px"
	 width="59.909px" height="73.568px" viewBox="0 0 59.909 73.568" enable-background="new 0 0 59.909 73.568" xml:space="preserve">
<path fill="#357EBB" d="M36.352,28.055c-0.097-0.054-1.16-0.622-2.994-0.622c-6.177,0-7.855,4.618-8.296,6.698H24.4
	c-0.385,0-0.731,0.213-0.904,0.556l-0.33,0.655c-0.087,0.173-0.091,0.341-0.01,0.473c0.081,0.131,0.232,0.203,0.427,0.203h1.252
	c-0.002,0.053-0.004,0.104-0.004,0.152c0,0.437,0.015,0.866,0.047,1.312h-0.706c-0.386,0-0.744,0.225-0.912,0.572l-0.306,0.636
	c-0.084,0.175-0.086,0.343-0.003,0.475c0.083,0.132,0.235,0.204,0.43,0.204h1.751c0.872,4.364,3.777,6.767,8.188,6.767
	c1.265,0,2.467-0.401,2.516-0.419c0.474-0.151,0.859-0.68,0.859-1.177v-0.484c0-0.257-0.094-0.456-0.265-0.56
	c-0.17-0.105-0.391-0.098-0.635,0.029c-0.008,0.007-0.846,0.645-2.674,0.645c-2.922,0-4.91-1.704-5.608-4.801h7.68
	c0.384,0,0.73-0.212,0.903-0.555l0.332-0.656c0.088-0.174,0.092-0.342,0.011-0.473c-0.081-0.131-0.232-0.203-0.426-0.203h-8.762
	c-0.021-0.303-0.04-0.657-0.04-1.045c0-0.114,0.007-0.22,0.014-0.325c0.002-0.031,0.004-0.062,0.006-0.094h7.573
	c0.387,0,0.734-0.215,0.906-0.561l0.324-0.649c0.086-0.175,0.089-0.343,0.008-0.474c-0.081-0.131-0.233-0.203-0.427-0.203h-8.164
	c1.021-4.502,5.053-4.732,5.857-4.732c1.645,0,2.538,0.713,2.563,0.73c0.221,0.12,0.454,0.136,0.656,0.043
	c0.201-0.093,0.341-0.279,0.394-0.526l0.076-0.354C37.103,28.802,36.814,28.249,36.352,28.055z"/>
</svg>
