<?xml version="1.0" encoding="utf-8"?>
<!-- Generator: Adobe Illustrator 19.1.0, SVG Export Plug-In . SVG Version: 6.00 Build 0)  -->
<svg version="1.1" id="Layer_1" xmlns="http://www.w3.org/2000/svg" xmlns:xlink="http://www.w3.org/1999/xlink" x="0px" y="0px"
	 width="59.909px" height="73.568px" viewBox="0 0 59.909 73.568" enable-background="new 0 0 59.909 73.568" xml:space="preserve">
<g>
	<path fill="#357EBB" d="M30.191,45.035c-3.541,0-6.41-2.87-6.41-6.41c0-3.54,2.87-6.409,6.41-6.409c3.541,0,6.41,2.87,6.41,6.409
		C36.601,42.165,33.731,45.035,30.191,45.035 M30.191,29.748c-4.902,0-8.877,3.974-8.877,8.876c0,4.902,3.975,8.877,8.877,8.877
		c4.902,0,8.877-3.975,8.877-8.877C39.068,33.722,35.093,29.748,30.191,29.748"/>
	<path fill="#357EBB" d="M44.13,34.255L44.13,34.255l-0.023-0.826v-5.39c0-0.551-0.184-1.95-0.826-1.973
		c-1.17,0-2.389,2.375-2.389,5.54c0,2.087,0.802,2.511,1.422,3.543l0.027,10.826c-0.023,0.528,0.413,0.941,0.917,0.941h0.23
		c0.527,0,0.94-0.436,0.917-0.941L44.13,34.255z"/>
	<path fill="#357EBB" d="M20.377,31.907L20.377,31.907c0,1.13-0.343,2.105-1.296,2.525c-0.022,0-0.045,0.022-0.045,0.022
		c-0.399,0.177-0.377,0.487-0.377,0.487l0.288,11.097c0.021,0.51-0.399,0.908-0.887,0.908h-0.221c-0.51,0-0.909-0.42-0.887-0.908
		l0.288-11.119c0-0.067-0.022-0.311-0.377-0.466c-0.997-0.421-1.363-1.417-1.363-2.569l0.199-4.784c0-0.311,0.244-0.443,0.354-0.443
		v5.25v-5.25c0.133,0,0.354,0.155,0.354,0.443l0.199,4.784h0.787l0.199-4.784c0-0.311,0.244-0.443,0.354-0.443v5.25v-5.25
		c0.133,0,0.354,0.155,0.354,0.443l0.199,4.784h0.787l0.199-4.784c0-0.311,0.243-0.443,0.354-0.443v5.25v-5.25
		c0.133,0,0.354,0.155,0.354,0.443L20.377,31.907z"/>
</g>
</svg>
