<?xml version="1.0" encoding="utf-8"?>
<!-- Generator: Adobe Illustrator 19.1.0, SVG Export Plug-In . SVG Version: 6.00 Build 0)  -->
<svg version="1.1" id="Layer_1" xmlns="http://www.w3.org/2000/svg" xmlns:xlink="http://www.w3.org/1999/xlink" x="0px" y="0px"
	 width="59.909px" height="73.568px" viewBox="0 0 59.909 73.568" enable-background="new 0 0 59.909 73.568" xml:space="preserve">
<path fill="#357EBB" d="M39.817,35.729l-9.851-8.304l-9.873,8.301c-0.173,0.145-0.07,0.427,0.156,0.427h2.374v9.775
	c0,0.119,0.096,0.215,0.215,0.215h4.568c0.119,0,0.215-0.096,0.215-0.215v-5.984c0-0.119,0.096-0.215,0.215-0.215h4.279
	c0.119,0,0.215,0.096,0.215,0.215v5.984c0,0.119,0.096,0.215,0.215,0.215h4.55c0.119,0,0.215-0.096,0.215-0.215v-9.775h2.354
	C39.887,36.153,39.989,35.873,39.817,35.729z"/>
</svg>
