<?xml version="1.0" encoding="utf-8"?>
<!-- Generator: Adobe Illustrator 19.1.0, SVG Export Plug-In . SVG Version: 6.00 Build 0)  -->
<svg version="1.1" id="Layer_1" xmlns="http://www.w3.org/2000/svg" xmlns:xlink="http://www.w3.org/1999/xlink" x="0px" y="0px"
	 width="59.909px" height="73.568px" viewBox="0 0 59.909 73.568" enable-background="new 0 0 59.909 73.568" xml:space="preserve">
<g>
	<g>
		<path fill="#357EBB" d="M24.775,38.068c1.521,0,2.759-1.238,2.759-2.759v-1.305c0-1.521-1.238-2.759-2.759-2.759
			c-1.521,0-2.759,1.238-2.759,2.759v1.305C22.016,36.83,23.254,38.068,24.775,38.068z"/>
		<path fill="#357EBB" d="M47.105,50.502H32.087c-0.452-3.558-1.23-9.047-1.238-9.106c-0.199-1.378-1.178-2.34-2.38-2.34h-1.372
			c-0.126,0-0.238,0.077-0.284,0.192c-0.348,0.34-1.179,0.699-2.044,0.699c-0.861,0-1.738-0.355-1.992-0.674
			c-0.039-0.129-0.157-0.217-0.293-0.217H20.89c-1.202,0-2.181,0.962-2.38,2.34c-0.008,0.058-0.787,5.547-1.238,9.105h-4.467
			c-0.494,0-0.894,0.4-0.894,0.894c0,0.494,0.4,0.894,0.894,0.894h34.3c0.494,0,0.894-0.4,0.894-0.894
			C47.999,50.902,47.599,50.502,47.105,50.502z M28.285,44.313c0.032,0,0.076,0,0.129,0.188l1.017,6.001h-1.191
			c-0.02-1.887-0.077-6.024-0.078-6.067C28.163,44.367,28.218,44.313,28.285,44.313z M20.945,44.501
			c0.053-0.188,0.097-0.188,0.129-0.188c0.067,0,0.122,0.055,0.122,0.118c-0.001,0.047-0.058,4.184-0.078,6.071h-1.191
			L20.945,44.501z"/>
	</g>
	<path fill="#357EBB" d="M41.152,21.278c-3.288,0-5.953,2.665-5.953,5.953c0,1.839,0.833,3.482,2.143,4.574l-1.708,1.379h5.518
		c3.288,0,5.953-2.666,5.953-5.954C47.105,23.943,44.44,21.278,41.152,21.278z M41.231,23.54c0.563,0,1.019,0.457,1.019,1.019
		c0,0.563-0.456,1.02-1.019,1.02c-0.563,0-1.019-0.457-1.019-1.02C40.211,23.997,40.667,23.54,41.231,23.54z M43.177,30.563
		c0,0.088-0.072,0.16-0.16,0.16h-3.573c-0.088,0-0.16-0.072-0.16-0.16v-0.287c0-0.088,0.072-0.16,0.16-0.16h1.153v-3.027
		c0-0.088-0.072-0.16-0.16-0.16h-0.821c-0.088,0-0.16-0.072-0.16-0.16v-0.287c0-0.088,0.072-0.16,0.16-0.16h2.088
		c0.088,0,0.16,0.072,0.16,0.16v3.633h1.153c0.088,0,0.16,0.072,0.16,0.16V30.563z"/>
</g>
</svg>
