<?xml version="1.0" encoding="utf-8"?>
<!-- Generator: Adobe Illustrator 19.1.0, SVG Export Plug-In . SVG Version: 6.00 Build 0)  -->
<svg version="1.1" id="Layer_1" xmlns="http://www.w3.org/2000/svg" xmlns:xlink="http://www.w3.org/1999/xlink" x="0px" y="0px"
	 width="59.909px" height="73.568px" viewBox="0 0 59.909 73.568" enable-background="new 0 0 59.909 73.568" xml:space="preserve">
<g>
	<path fill="#357EBB" d="M43.847,23.02h-8.51c-0.11,0-0.198,0.089-0.198,0.198v2.617v5.672c-0.307-0.187-0.664-0.301-1.05-0.301
		c-1.12,0-2.028,0.908-2.028,2.028c0,1.12,0.908,2.028,2.028,2.028s2.028-0.908,2.028-2.028l0,0h0v-7.399h6.951v5.672
		c-0.307-0.187-0.664-0.301-1.05-0.301c-1.12,0-2.028,0.908-2.028,2.028c0,1.12,0.908,2.028,2.028,2.028
		c1.12,0,2.028-0.908,2.028-2.028l0-0.001h0v-7.398v-2.617C44.045,23.108,43.956,23.02,43.847,23.02z"/>
	<g>
		<path fill="#357EBB" d="M23.033,50.547c0.225-6.965,0.119-7.612-1.606-8.752c-1.473-0.975-4.157-0.428-5.344-0.115
			c-0.137,0.553-0.219,1.129-0.219,1.726c0,3.945,3.197,7.143,7.142,7.143C23.015,50.548,23.024,50.547,23.033,50.547z"/>
		<path fill="#357EBB" d="M25.519,38.43c0.876,0.869,2.147,1.318,3.619,1.839c0.111,0.039,0.226,0.082,0.338,0.122
			c-0.952-2.038-2.831-3.554-5.101-3.994C24.568,37.074,24.906,37.822,25.519,38.43z"/>
		<path fill="#357EBB" d="M28.805,41.212c-1.52-0.537-2.955-1.044-3.99-2.072c-0.885-0.878-1.308-1.964-1.512-2.862
			c-0.099-0.004-0.196-0.015-0.297-0.015c-2.933,0-5.45,1.769-6.549,4.298c1.497-0.329,3.957-0.635,5.522,0.401
			c2.197,1.452,2.281,2.637,2.058,9.505c3.455-0.5,6.113-3.466,6.113-7.06c0-0.62-0.087-1.219-0.236-1.793
			C29.54,41.472,29.169,41.341,28.805,41.212z"/>
	</g>
</g>
</svg>
