<?xml version="1.0" encoding="utf-8"?>
<!-- Generator: Adobe Illustrator 19.1.0, SVG Export Plug-In . SVG Version: 6.00 Build 0)  -->
<svg version="1.1" id="Layer_1" xmlns="http://www.w3.org/2000/svg" xmlns:xlink="http://www.w3.org/1999/xlink" x="0px" y="0px"
	 width="59.909px" height="73.568px" viewBox="0 0 59.909 73.568" enable-background="new 0 0 59.909 73.568" xml:space="preserve">
<path fill="#357EBB" d="M32.72,36.397l3.364-3.364c1.424,0.523,3.077,0.235,4.22-0.908c1.026-1.026,1.365-2.462,1.051-3.777
	c-0.024-0.101-0.156-0.135-0.23-0.061l-2.654,2.654c-0.292,0.292-0.767,0.292-1.058,0l-1.616-1.615
	c-0.291-0.291-0.291-0.766,0.001-1.058l2.654-2.654c0.074-0.074,0.04-0.206-0.062-0.231c-1.314-0.314-2.75,0.026-3.776,1.051
	c-1.144,1.144-1.432,2.796-0.908,4.221l-3.364,3.364l-6.504-6.504c-0.087-0.049-4.078-1.099-4.078-1.099
	c-0.112-0.028-0.213,0.074-0.186,0.186c0,0,1.05,3.991,1.099,4.078l6.505,6.505l-3.352,3.352c-1.424-0.523-3.077-0.235-4.22,0.908
	c-1.026,1.026-1.365,2.462-1.051,3.777c0.024,0.102,0.156,0.136,0.23,0.062l2.654-2.654c0.291-0.291,0.767-0.291,1.058,0
	l1.616,1.615c0.291,0.291,0.291,0.767-0.001,1.058l-2.654,2.654c-0.074,0.074-0.039,0.207,0.062,0.23
	c1.314,0.314,2.75-0.025,3.776-1.051c1.144-1.144,1.431-2.797,0.908-4.221l3.352-3.351l7.569,7.569c0.089,0.089,0.233,0.089,0.321,0
	l2.844-2.844c0.089-0.089,0.089-0.232,0-0.321L32.72,36.397z M20.944,30.298l-0.563-2.258l0.829-0.829l2.258,0.563L20.944,30.298z"
	/>
</svg>
