<?xml version="1.0" encoding="utf-8"?>
<!-- Generator: Adobe Illustrator 19.1.0, SVG Export Plug-In . SVG Version: 6.00 Build 0)  -->
<svg version="1.1" id="Layer_1" xmlns="http://www.w3.org/2000/svg" xmlns:xlink="http://www.w3.org/1999/xlink" x="0px" y="0px"
	 width="262px" height="222px" viewBox="0 0 262 222" enable-background="new 0 0 262 222" xml:space="preserve">
<path fill="#357EBB" d="M161.458,69.439c-0.46-0.256-5.524-2.962-14.256-2.962c-29.412,0-37.4,21.988-39.501,31.892h-3.148
	c-1.832,0-3.483,1.014-4.303,2.646l-1.572,3.12c-0.416,0.823-0.432,1.623-0.047,2.25c0.386,0.623,1.107,0.967,2.032,0.967h5.963
	c-0.012,0.251-0.021,0.498-0.021,0.725c0,2.078,0.072,4.124,0.223,6.245h-3.359c-1.839,0-3.543,1.069-4.34,2.725l-1.458,3.027
	c-0.402,0.832-0.409,1.632-0.016,2.26c0.395,0.628,1.121,0.972,2.046,0.972h8.339c4.152,20.779,17.985,32.218,38.985,32.218
	c6.021,0,11.745-1.911,11.98-1.995c2.255-0.721,4.092-3.236,4.092-5.603v-2.306c0-1.223-0.449-2.171-1.26-2.664
	c-0.811-0.502-1.86-0.465-3.025,0.139c-0.04,0.033-4.029,3.069-12.731,3.069c-13.914,0-23.379-8.114-26.703-22.858h36.567
	c1.827,0,3.476-1.009,4.301-2.641l1.579-3.125c0.418-0.828,0.437-1.627,0.051-2.25c-0.384-0.623-1.104-0.967-2.03-0.967h-41.719
	c-0.098-1.441-0.188-3.129-0.188-4.975c0-0.544,0.033-1.046,0.065-1.548c0.009-0.149,0.019-0.298,0.028-0.446h36.056
	c1.844,0,3.497-1.023,4.315-2.669l1.541-3.092c0.411-0.832,0.425-1.632,0.037-2.255c-0.386-0.623-1.109-0.967-2.034-0.967h-38.869
	c4.864-21.435,24.06-22.532,27.889-22.532c7.832,0,12.085,3.394,12.203,3.478c1.051,0.572,2.16,0.646,3.122,0.205
	c0.956-0.442,1.623-1.33,1.876-2.506l0.363-1.683C165.036,72.996,163.657,70.364,161.458,69.439z"/>
</svg>
