<?xml version="1.0" encoding="utf-8"?>
<!-- Generator: Adobe Illustrator 19.1.0, SVG Export Plug-In . SVG Version: 6.00 Build 0)  -->
<svg version="1.1" id="Layer_1" xmlns="http://www.w3.org/2000/svg" xmlns:xlink="http://www.w3.org/1999/xlink" x="0px" y="0px"
	 width="262px" height="222px" viewBox="0 0 262 222" enable-background="new 0 0 262 222" xml:space="preserve">
<g>
	<g>
		<path fill="#357EBB" d="M143.454,69.806c-0.707,0-1.397-0.349-1.806-0.986c-2.346-3.659-6.331-5.845-10.659-5.845
			c-4.317,0-8.293,2.171-10.638,5.817c-0.639,0.99-1.969,1.283-2.962,0.637c-0.995-0.637-1.281-1.967-0.642-2.962
			c3.139-4.868,8.462-7.779,14.242-7.779c5.796,0,11.129,2.925,14.268,7.816c0.639,1,0.349,2.325-0.649,2.962
			C144.249,69.694,143.849,69.806,143.454,69.806z M152.154,62.134c-0.656,0-1.304-0.302-1.725-0.869
			c-4.554-6.147-11.824-9.82-19.44-9.82c-7.693,0-14.756,3.552-19.38,9.746c-0.704,0.944-2.051,1.144-2.997,0.432
			c-0.949-0.707-1.144-2.051-0.435-2.999c5.359-7.179,13.886-11.466,22.811-11.466c8.969,0,17.525,4.32,22.886,11.559
			c0.704,0.949,0.504,2.292-0.446,2.994C153.044,61.994,152.595,62.134,152.154,62.134z M160.886,54.266
			c-0.635,0-1.262-0.279-1.686-0.818c-6.872-8.723-17.155-13.726-28.212-13.726c-11.043,0-21.316,4.994-28.191,13.703
			c-0.728,0.935-2.078,1.083-3.008,0.358c-0.928-0.735-1.088-2.083-0.353-3.008c7.691-9.75,19.192-15.339,31.553-15.339
			c12.377,0,23.888,5.598,31.578,15.363c0.732,0.93,0.572,2.274-0.358,3.008C161.816,54.117,161.348,54.266,160.886,54.266z"/>
	</g>
	<path fill="#357EBB" d="M151.629,84.724h-41.258c-3.338,0-6.043,2.706-6.043,6.043v89.754c0,3.338,2.706,6.043,6.043,6.043h41.258
		c3.338,0,6.043-2.705,6.043-6.043V90.767C157.672,87.43,154.966,84.724,151.629,84.724z M131,180.338
		c-2.01,0-3.639-1.63-3.639-3.64s1.629-3.64,3.639-3.64s3.639,1.63,3.639,3.64S133.01,180.338,131,180.338z M153.385,165.777
		c0,0.451-0.365,0.816-0.815,0.816h-43.14c-0.45,0-0.815-0.365-0.815-0.816v-60.73c0-0.451,0.365-0.816,0.815-0.816h43.14
		c0.45,0,0.815,0.365,0.815,0.816V165.777z"/>
</g>
</svg>
