<?xml version="1.0" encoding="utf-8"?>
<!-- Generator: Adobe Illustrator 19.1.0, SVG Export Plug-In . SVG Version: 6.00 Build 0)  -->
<svg version="1.1" id="Layer_1" xmlns="http://www.w3.org/2000/svg" xmlns:xlink="http://www.w3.org/1999/xlink" x="0px" y="0px"
	 width="262px" height="222px" viewBox="0 0 262 222" enable-background="new 0 0 262 222" xml:space="preserve">
<path fill="#357EBB" d="M173.506,78.644c-0.257-0.339-0.643-0.555-1.066-0.596l-30.562-2.871c-0.816-0.077-1.524,0.507-1.655,1.317
	c-0.718,4.448-4.573,7.846-9.224,7.846c-4.659,0-8.522-3.409-9.23-7.87c-0.129-0.812-0.838-1.399-1.657-1.321l-30.556,2.899
	c-0.423,0.042-0.808,0.258-1.064,0.597c-0.256,0.339-0.359,0.769-0.285,1.187l3.047,17.051c0.13,0.726,0.761,1.255,1.499,1.255
	h9.743v47.199c0,0.841,0.682,1.523,1.523,1.523h53.957c0.841,0,1.523-0.682,1.523-1.523V98.136h9.744
	c0.737,0,1.369-0.529,1.499-1.255l3.047-17.051C173.865,79.413,173.762,78.983,173.506,78.644z"/>
</svg>
