<?xml version="1.0" encoding="utf-8"?>
<!-- Generator: Adobe Illustrator 19.1.0, SVG Export Plug-In . SVG Version: 6.00 Build 0)  -->
<svg version="1.1" id="Layer_1" xmlns="http://www.w3.org/2000/svg" xmlns:xlink="http://www.w3.org/1999/xlink" x="0px" y="0px"
	 width="262px" height="222px" viewBox="0 0 262 222" enable-background="new 0 0 262 222" xml:space="preserve">
<path fill="#357EBB" d="M144.168,109.159l16.018-16.018c6.782,2.492,14.65,1.121,20.094-4.324
	c4.883-4.883,6.499-11.722,5.002-17.981c-0.116-0.481-0.742-0.645-1.096-0.292L171.549,83.18c-1.388,1.388-3.653,1.389-5.039,0
	l-7.694-7.692c-1.384-1.383-1.384-3.649,0.004-5.037l12.636-12.637c0.353-0.353,0.188-0.982-0.295-1.098
	c-6.255-1.494-13.095,0.122-17.978,5.005c-5.445,5.445-6.816,13.314-4.325,20.096l-16.016,16.016l-30.969-30.969
	c-0.415-0.235-19.418-5.233-19.418-5.233c-0.532-0.133-1.016,0.351-0.883,0.885c0,0,4.998,19.002,5.233,19.416l30.97,30.97
	l-15.958,15.958c-6.782-2.492-14.651-1.121-20.094,4.323c-4.884,4.883-6.5,11.723-5.002,17.981c0.115,0.484,0.742,0.646,1.094,0.293
	l12.638-12.638c1.387-1.386,3.652-1.386,5.039,0.001l7.693,7.692c1.383,1.384,1.383,3.65-0.003,5.037l-12.637,12.637
	c-0.352,0.353-0.187,0.983,0.297,1.097c6.255,1.495,13.094-0.121,17.978-5.003c5.445-5.446,6.815-13.317,4.324-20.096l15.958-15.957
	l36.037,36.037c0.422,0.423,1.108,0.423,1.53,0l13.539-13.539c0.422-0.422,0.422-1.107,0-1.53L144.168,109.159z M88.1,80.121
	l-2.683-10.752l3.946-3.946l10.752,2.683L88.1,80.121z"/>
</svg>
