<?xml version="1.0" encoding="utf-8"?>
<!-- Generator: Adobe Illustrator 19.1.0, SVG Export Plug-In . SVG Version: 6.00 Build 0)  -->
<svg version="1.1" id="Layer_1" xmlns="http://www.w3.org/2000/svg" xmlns:xlink="http://www.w3.org/1999/xlink" x="0px" y="0px"
	 width="262px" height="222px" viewBox="0 0 262 222" enable-background="new 0 0 262 222" xml:space="preserve">
<path fill="#357EBB" d="M121.885,96.202c-1.876,0.557-3.404,1.581-4.585,3.08c-1.181,1.49-1.771,3.243-1.771,5.256
	c0,0.419,0.052,0.919,0.157,1.509c0.1,0.59,0.348,1.252,0.728,1.981c0.381,0.733,0.952,1.495,1.719,2.295
	c0.762,0.8,1.805,1.581,3.123,2.343l18.964,10.627c1.809-0.762,3.3-1.838,4.48-3.228c1.181-1.39,1.771-3.161,1.771-5.313
	c0-1.528-0.486-2.957-1.457-4.276c-0.976-1.314-2.919-2.776-5.833-4.376L121.885,96.202z M141.263,81.928
	c-0.138-2.914-1.062-5.366-2.762-7.342c-1.7-1.98-4.047-2.971-7.032-2.971c-2.152,0-4.114,0.709-5.885,2.133
	c-1.776,1.428-2.662,3.318-2.662,5.685c0,1.662,0.505,3.143,1.514,4.423c1.005,1.29,2.309,2.504,3.909,3.647
	c1.595,1.148,3.438,2.228,5.518,3.233c2.085,1.009,4.204,2.066,6.356,3.176c2.152,1.114,4.276,2.29,6.356,3.542
	c2.085,1.247,3.961,2.657,5.628,4.218c1.666,1.566,3.004,3.319,4.009,5.266c1.009,1.942,1.514,4.166,1.514,6.666
	c0,1.667-0.3,3.285-0.89,4.847c-0.59,1.562-1.371,3.004-2.343,4.323c-0.971,1.319-2.133,2.499-3.49,3.542
	c-1.352,1.043-2.795,1.804-4.323,2.295c1.876,1.595,3.3,3.418,4.271,5.466c0.971,2.052,1.462,4.676,1.462,7.866
	c0,2.919-0.576,5.49-1.724,7.713c-1.143,2.219-2.671,4.08-4.58,5.576c-1.914,1.49-4.099,2.619-6.566,3.38
	c-2.466,0.771-5.052,1.152-7.761,1.152c-3.2,0-6.147-0.471-8.861-1.409c-2.704-0.938-5.052-2.314-7.032-4.114
	c-1.976-1.809-3.557-4.028-4.737-6.671c-1.181-2.642-1.809-5.695-1.876-9.17h11.251c0.281,3.685,1.286,6.599,3.023,8.751
	c1.738,2.152,4.376,3.233,7.918,3.233c2.638,0,4.809-0.643,6.513-1.928c1.7-1.286,2.552-3.457,2.552-6.513
	c0-1.871-0.524-3.561-1.562-5.052c-1.043-1.495-2.4-2.847-4.066-4.066c-1.666-1.209-3.576-2.376-5.733-3.49
	c-2.152-1.105-4.338-2.257-6.561-3.438c-2.29-1.11-4.533-2.324-6.723-3.642c-2.185-1.324-4.133-2.781-5.833-4.38
	c-1.705-1.595-3.09-3.366-4.166-5.309c-1.081-1.948-1.619-4.171-1.619-6.675c0-3.885,1.009-7.08,3.023-9.58
	c2.014-2.504,4.756-4.485,8.232-5.942c-1.528-1.6-2.657-3.19-3.385-4.79c-0.733-1.6-1.095-3.509-1.095-5.732
	c0-2.781,0.605-5.261,1.824-7.451c1.214-2.19,2.776-4.028,4.685-5.523c1.914-1.495,4.099-2.638,6.566-3.438
	c2.466-0.8,4.952-1.2,7.451-1.2c2.985,0,5.747,0.457,8.285,1.357c2.533,0.905,4.738,2.205,6.613,3.909
	c1.876,1.7,3.352,3.766,4.428,6.195c1.076,2.433,1.614,5.175,1.614,8.232H141.263z"/>
</svg>
