<?xml version="1.0" encoding="utf-8"?>
<!-- Generator: Adobe Illustrator 19.1.0, SVG Export Plug-In . SVG Version: 6.00 Build 0)  -->
<svg version="1.1" id="Layer_1" xmlns="http://www.w3.org/2000/svg" xmlns:xlink="http://www.w3.org/1999/xlink" x="0px" y="0px"
	 width="262px" height="222px" viewBox="0 0 262 222" enable-background="new 0 0 262 222" xml:space="preserve">
<g>
	<g>
		<path fill="#357EBB" d="M79.313,78.005l0.003,21.4H57.915c-0.495,0-0.897,0.402-0.897,0.897v21.397
			c0,0.495,0.402,0.897,0.897,0.897h21.423l-0.025,21.4c0,0.495,0.402,0.897,0.897,0.897h21.394c0.495,0,0.897-0.402,0.897-0.897
			l0.023-21.4h21.374c0.495,0,0.897-0.402,0.897-0.897v-21.397c0-0.495-0.402-0.897-0.897-0.897h-21.38l-0.018-21.4
			c0-0.495-0.402-0.897-0.897-0.897H80.21C79.715,77.108,79.313,77.509,79.313,78.005z"/>
	</g>
	<g>
		<path fill="#357EBB" d="M179.314,73.976c-20.106,0.382-36.306,16.82-36.306,37.02c0,20.439,16.59,37.03,37.027,37.03
			c9.555,0,18.267-3.63,24.837-9.58c-4.632,2.663-10.005,4.184-15.728,4.184c-17.451,0-31.609-14.159-31.609-31.612
			c0-17.453,14.158-31.612,31.609-31.612c5.768,0,11.18,1.547,15.837,4.249c-6.583-6.009-15.338-9.678-24.947-9.678
			C179.795,73.976,179.553,73.971,179.314,73.976"/>
	</g>
</g>
</svg>
