<?xml version="1.0" encoding="utf-8"?>
<!-- Generator: Adobe Illustrator 19.1.0, SVG Export Plug-In . SVG Version: 6.00 Build 0)  -->
<svg version="1.1" id="Layer_1" xmlns="http://www.w3.org/2000/svg" xmlns:xlink="http://www.w3.org/1999/xlink" x="0px" y="0px"
	 width="262px" height="222px" viewBox="0 0 262 222" enable-background="new 0 0 262 222" xml:space="preserve">
<path fill="#357EBB" d="M162.561,120.696c-0.579-4.303-6.95-41.483-7.195-43.208c-0.745-5.147-4.676-9.441-9.632-9.363h-0.786
	c-1.291-3.322-1.774-11.994-1.677-17.181c0.035-0.442,0.055-0.889,0.055-1.341c0-8.002-5.506-14.422-12.326-14.422
	c-6.82,0-12.326,6.42-12.326,14.422c0,0.452,0.02,0.9,0.055,1.341c0.097,5.187-0.385,13.858-1.677,17.181h-0.786
	c-4.955-0.078-8.886,4.216-9.632,9.363c-0.245,1.725-6.616,38.905-7.195,43.208c-0.285,2.113,0.43,4.688,3.524,5.738
	c1.25,0.424,2.669,0.202,3.813-0.458c1.143-0.66,1.975-1.725,2.316-3l0.017-0.064l7.578-37.051c0.101-0.356,0.195-0.496,0.23-0.539
	c0.009-0.001,0.021-0.002,0.037-0.002c0.13,0,0.235,0.106,0.235,0.235l0.001,0.053c0.006,0.163,1.605,11.945,1.605,15.071
	c0,2.586-10.646,44.7-10.646,48.472c0,3.772,4.177,5.004,6.767,5.004l0.704,0.022l-1.985,30.25
	c-0.003,0.037-0.005,0.074-0.005,0.112c0,1.259,1.034,2.282,2.306,2.282h8.56c1.256,0,2.28-1.004,2.3-2.246l1.932-29.663H131h2.272
	l1.932,29.663c0.019,1.241,1.044,2.246,2.3,2.246h8.56c1.271,0,2.306-1.023,2.306-2.282c0-0.037-0.002-0.074-0.005-0.112
	l-1.985-30.25l0.704-0.022c2.59,0,6.767-1.232,6.767-5.004c0-3.772-10.646-45.885-10.646-48.472c0-3.126,1.599-14.908,1.605-15.071
	l0.001-0.053c0-0.129,0.105-0.235,0.235-0.235c0.015,0,0.028,0.001,0.037,0.002c0.035,0.043,0.129,0.184,0.23,0.539l7.578,37.051
	l0.017,0.064c0.342,1.275,1.173,2.34,2.316,3c1.144,0.66,2.563,0.882,3.813,0.458C162.131,125.384,162.845,122.81,162.561,120.696z
	 M123.855,49.417c0-0.131,0.004-0.263,0.011-0.392c6.63-0.079,9.499-1.648,10.736-2.971c0.551-0.589,0.922-1.268,1.102-2.008
	c1.494,1.311,2.44,3.232,2.44,5.37v4.516c0,3.939-3.205,7.144-7.145,7.144c-3.939,0-7.145-3.205-7.145-7.144V49.417z"/>
</svg>
