<?xml version="1.0" encoding="utf-8"?>
<!-- Generator: Adobe Illustrator 19.1.0, SVG Export Plug-In . SVG Version: 6.00 Build 0)  -->
<svg version="1.1" id="Layer_1" xmlns="http://www.w3.org/2000/svg" xmlns:xlink="http://www.w3.org/1999/xlink" x="0px" y="0px"
	 width="262px" height="222px" viewBox="0 0 262 222" enable-background="new 0 0 262 222" xml:space="preserve">
<path fill="#357EBB" d="M177.958,105.975l-46.903-39.538l-47.01,39.525c-0.823,0.692-0.334,2.035,0.742,2.035h11.302v46.543
	c0,0.565,0.458,1.022,1.022,1.022h21.751c0.565,0,1.022-0.458,1.022-1.022V126.05c0-0.565,0.458-1.022,1.022-1.022h20.371
	c0.565,0,1.022,0.458,1.022,1.022v28.491c0,0.565,0.458,1.022,1.022,1.022h21.666c0.565,0,1.022-0.458,1.022-1.022v-46.543h11.209
	C178.288,107.997,178.775,106.664,177.958,105.975z"/>
</svg>
