<?xml version="1.0" encoding="utf-8"?>
<!-- Generator: Adobe Illustrator 19.1.0, SVG Export Plug-In . SVG Version: 6.00 Build 0)  -->
<svg version="1.1" id="Layer_1" xmlns="http://www.w3.org/2000/svg" xmlns:xlink="http://www.w3.org/1999/xlink" x="0px" y="0px"
	 width="262px" height="222px" viewBox="0 0 262 222" enable-background="new 0 0 262 222" xml:space="preserve">
<g>
	<g>
		<path fill="#357EBB" d="M122.189,108.301l4.712-4.715c-0.133-0.074-0.265-0.139-0.409-0.172c-8.839-2.185-8.839-7.095-8.839-8.709
			c0-11.461,3.808-17.274,11.32-17.274c4.743,0,11.352,1.102,13.958,10.629c0.012,0.044,0.021,0.083,0.033,0.128l4.615-4.616
			c-0.045-0.103-0.072-0.222-0.119-0.324l-0.065-0.139l0.021-0.023c-3.494-7.593-9.869-11.606-18.443-11.606
			c-10.976,0-17.271,8.467-17.271,23.225C111.702,101.08,115.328,105.776,122.189,108.301z"/>
		<path fill="#357EBB" d="M141.496,111.351c-0.274,0.801-0.564,1.609-0.911,2.469c-2.701,6.719-6.826,12.089-12.608,16.423
			c-0.66,0.498-1.088,1.223-1.204,2.041s0.093,1.632,0.588,2.288c0.344,0.465,0.804,0.818,1.332,1.023c1,0.4,2.13,0.251,3.001-0.4
			c6.768-5.073,11.554-11.308,14.635-19.064c1.709-4.304,2.736-8.611,3.062-12.677L141.496,111.351z"/>
	</g>
	
		<rect x="74.769" y="107.506" transform="matrix(0.7071 -0.7071 0.7071 0.7071 -40.1196 125.1446)" fill="#357EBB" width="112.462" height="6.988"/>
	<g>
		<path fill="#357EBB" d="M113.872,117.282l4.488-4.488c-8.705-3.437-12.681-11.345-12.681-18.088
			c0-27.94,19.424-28.744,21.64-28.744c8.342,0,14.988,2.59,19.754,7.705c1.745,1.871,3.062,4.012,4.184,6.231l4.874-4.874
			c-1.16-2.018-2.446-3.888-3.938-5.49c-5.831-6.254-14.198-9.425-24.873-9.425c-17.576,0-27.256,12.387-27.256,34.877
			C100.061,104.766,105.454,113.327,113.872,117.282z"/>
		<path fill="#357EBB" d="M155.513,97.332c0.166,3.136,0.102,5.899-0.03,7.774c-0.577,8.183-2.741,14.823-6.619,20.301
			c-1.713,2.432-3.594,4.733-5.412,6.961l-1.153,1.414c-3.136,3.869-5.345,7.328-7.161,11.224l-2.339,4.873
			c-2.109,3.845-5.875,6.217-9.841,6.217c-7.267,0-8.669-5.659-9.344-8.374c-0.065-0.27-0.126-0.511-0.184-0.716
			c-0.486-1.748-1.999-2.213-2.818-2.213c-1.409,0-2.867,1.144-2.867,3.055c0.012,1.804,0.56,3.455,0.623,3.636
			c2.236,6.519,7.691,10.411,14.588,10.411c6.179,0,11.822-3.59,15.095-9.597l2.336-4.859c1.604-3.436,3.576-6.519,6.398-10.001
			l1.146-1.409c1.595-1.948,3.776-4.608,5.659-7.277c4.878-6.891,7.535-14.344,8.13-22.774c0.364-5.161,0.195-9.986-0.388-14.465
			L155.513,97.332z"/>
	</g>
</g>
</svg>
