<?xml version="1.0" encoding="utf-8"?>
<!-- Generator: Adobe Illustrator 19.1.0, SVG Export Plug-In . SVG Version: 6.00 Build 0)  -->
<svg version="1.1" id="Layer_1" xmlns="http://www.w3.org/2000/svg" xmlns:xlink="http://www.w3.org/1999/xlink" x="0px" y="0px"
	 width="262px" height="222px" viewBox="0 0 262 222" enable-background="new 0 0 262 222" xml:space="preserve">
<g>
	
		<rect x="74.639" y="107.506" transform="matrix(0.7071 -0.7071 0.7071 0.7071 -40.1579 125.0524)" fill="#357EBB" width="112.462" height="6.988"/>
	<path fill="#357EBB" d="M103.836,127.835c-10.063-5.881-17.761-13.299-21.099-16.854c4.496-4.787,16.769-16.685,32.273-22.239
		c-6.91,4.977-11.426,13.071-11.426,22.238c0,4.917,1.369,9.477,3.649,13.457l41.786-41.784c-5.633-1.99-11.672-3.29-18.02-3.29
		c-30.203,0-54.056,28.36-55.058,29.567l-1.699,2.051l1.699,2.051c0.603,0.727,9.578,11.25,23.153,19.545L103.836,127.835z"/>
	<path fill="#357EBB" d="M186.058,108.931c-0.603-0.727-9.567-11.239-23.128-19.532l-4.74,4.74
		c10.05,5.88,17.737,13.29,21.072,16.842c-4.494,4.786-16.767,16.683-32.273,22.237c6.911-4.976,11.427-13.071,11.427-22.238
		c0-4.908-1.364-9.46-3.633-13.434l-41.773,41.773c5.625,1.984,11.654,3.278,17.991,3.278c30.206,0,54.056-28.358,55.059-29.565
		l1.699-2.051L186.058,108.931z"/>
</g>
</svg>
