<?xml version="1.0" encoding="utf-8"?>
<!-- Generator: Adobe Illustrator 19.1.0, SVG Export Plug-In . SVG Version: 6.00 Build 0)  -->
<svg version="1.1" id="Layer_1" xmlns="http://www.w3.org/2000/svg" xmlns:xlink="http://www.w3.org/1999/xlink" x="0px" y="0px"
	 width="262px" height="222px" viewBox="0 0 262 222" enable-background="new 0 0 262 222" xml:space="preserve">
<g>
	<path fill="#C000FF" d="M185.498,137.282l-0.027-0.094c-0.248,0.075-25.317,7.133-53.661-0.054
		c-27.538-6.983-46.57-3.852-55.309-1.451v13.431c1.55-0.644,19.838-7.765,52.161,0.436c10.729,2.718,20.981,3.627,29.897,3.627
		c12.285,0,22.004-1.722,26.939-2.814V137.282z"/>
	<path fill="#005CFF" d="M185.498,124.475l-0.027-0.094c-0.248,0.079-25.317,7.133-53.661-0.054
		c-27.538-6.983-46.57-3.852-55.309-1.451v13.431c1.55-0.644,19.838-7.761,52.161,0.436c10.729,2.718,20.981,3.627,29.897,3.627
		c12.285,0,22.004-1.722,26.939-2.814V124.475z"/>
	<path fill="#00FF30" d="M185.498,111.667l-0.027-0.094c-0.248,0.079-25.317,7.129-53.661-0.054
		c-27.538-6.986-46.57-3.853-55.309-1.453v13.433c1.55-0.644,19.838-7.765,52.161,0.436c10.729,2.718,20.981,3.627,29.897,3.627
		c12.285,0,22.004-1.722,26.939-2.814V111.667z"/>
	<path fill="#FFFF00" d="M185.498,98.86l-0.027-0.094c-0.248,0.079-25.317,7.133-53.661-0.054
		c-27.538-6.983-46.57-3.849-55.309-1.45v13.43c1.55-0.641,19.838-7.765,52.161,0.436c10.729,2.718,20.981,3.627,29.897,3.627
		c12.285,0,22.004-1.722,26.939-2.814V98.86z"/>
	<path fill="#FF8B00" d="M185.498,86.052l-0.027-0.094c-0.248,0.075-25.317,7.129-53.661-0.054
		c-27.538-6.983-46.57-3.852-55.309-1.452v13.432c1.55-0.644,19.838-7.761,52.161,0.436c10.729,2.718,20.981,3.627,29.897,3.627
		c12.285,0,22.004-1.722,26.939-2.814V86.052z"/>
	<path fill="#FF0000" d="M185.498,73.245l-0.027-0.094c-0.248,0.079-25.317,7.133-53.661-0.054
		c-27.538-6.986-46.57-3.853-55.309-1.453v13.433c1.55-0.645,19.838-7.765,52.161,0.436c10.729,2.718,20.981,3.627,29.897,3.627
		c12.285,0,22.004-1.722,26.939-2.814V73.245z"/>
</g>
</svg>
