<?xml version="1.0" encoding="utf-8"?>
<!-- Generator: Adobe Illustrator 19.1.0, SVG Export Plug-In . SVG Version: 6.00 Build 0)  -->
<svg version="1.1" id="Layer_1" xmlns="http://www.w3.org/2000/svg" xmlns:xlink="http://www.w3.org/1999/xlink" x="0px" y="0px"
	 width="262px" height="222px" viewBox="0 0 262 222" enable-background="new 0 0 262 222" xml:space="preserve">
<g>
	<path fill="#357EBB" d="M164.093,92.373c2.974,5.395,4.675,11.585,4.675,18.169c0,20.821-16.943,37.765-37.769,37.765
		c-6.583,0-12.772-1.701-18.166-4.674l-4.672,4.671c6.676,4.052,14.474,6.429,22.838,6.429c24.369,0,44.195-19.822,44.195-44.191
		c0-8.364-2.378-16.163-6.431-22.839L164.093,92.373z"/>
	<g>
		<path fill="#357EBB" d="M101.607,134.201c-5.227-6.482-8.375-14.707-8.375-23.66c0-20.826,16.943-37.769,37.767-37.769
			c8.955,0,17.182,3.148,23.663,8.375l4.571-4.571c-7.663-6.382-17.506-10.23-28.234-10.23c-24.369,0-44.193,19.826-44.193,44.195
			c0,10.728,3.849,20.569,10.229,28.232L101.607,134.201z"/>
		<path fill="#357EBB" d="M142.962,132.858c0,0-2.75,2.164-8.905,2.164c-2.096,0-8.148-0.172-12.97-4.952l11.325-11.327h8.389
			c1.12,0,2.145-0.63,2.65-1.63l1.08-2.137c0.481-0.951,0.002-1.73-1.062-1.73h-5.561l37.116-37.117l-4.94-4.943l-31.151,31.152
			h-23.747c3.075-14.54,15.456-16.055,19.475-16.055c5.551,0,8.498,2.418,8.498,2.418c1.308,0.703,2.633,0.091,2.946-1.36
			l0.248-1.148c0.313-1.451-0.554-3.101-1.927-3.666c0,0-3.486-1.995-9.605-1.995c-18.321,0-24.842,12.457-26.745,21.807h-2.418
			c-1.122,0-2.148,0.631-2.653,1.633l-1.073,2.132c-0.479,0.952,0.001,1.73,1.066,1.73h4.417c-0.009,0.273-0.027,0.566-0.027,0.82
			c0,1.606,0.066,3.129,0.176,4.594h-2.646c-1.14,0-2.18,0.653-2.675,1.681L101.245,117c-0.463,0.959,0.03,1.744,1.095,1.744h5.972
			c0.796,4.124,2.105,7.562,3.803,10.415l-21.552,21.552l4.94,4.943l21.124-21.125c4.888,4.363,11.242,6.245,18.074,6.245
			c4.111,0,8.093-1.35,8.093-1.35c1.414-0.452,2.571-2.037,2.571-3.521v-1.576C145.365,132.842,144.284,132.181,142.962,132.858z
			 M114.566,107.834h18.873l-5.413,5.413h-13.388c-0.084-1.188-0.151-2.403-0.151-3.724
			C114.487,108.927,114.542,108.4,114.566,107.834z M115.393,118.743h7.136l-5.422,5.422
			C116.417,122.593,115.83,120.803,115.393,118.743z"/>
	</g>
</g>
</svg>
