<?xml version="1.0" encoding="utf-8"?>
<!-- Generator: Adobe Illustrator 19.1.0, SVG Export Plug-In . SVG Version: 6.00 Build 0)  -->
<svg version="1.1" id="Layer_1" xmlns="http://www.w3.org/2000/svg" xmlns:xlink="http://www.w3.org/1999/xlink" x="0px" y="0px"
	 width="262px" height="222px" viewBox="0 0 262 222" enable-background="new 0 0 262 222" xml:space="preserve">
<g>
	<g>
		<path fill="#357EBB" d="M66.447,125.98c3.398,0,6.162-2.764,6.162-6.162v-2.791c0-3.398-2.764-6.162-6.162-6.162
			c-3.398,0-6.162,2.764-6.162,6.162v2.791C60.285,123.216,63.05,125.98,66.447,125.98z"/>
		<path fill="#357EBB" d="M82.762,148.181l-0.018-0.052c-0.613-1.585-6.179-15.646-6.235-15.788l-0.016-0.037
			c-1.034-2.301-1.782-3.966-4.154-3.844H60.289c-2.371-0.123-3.12,1.542-4.154,3.844l-0.016,0.037
			c-0.056,0.142-5.623,14.203-6.236,15.788l-0.018,0.052c-0.381,1.204,0.288,2.494,1.492,2.875c0.241,0.076,0.482,0.113,0.718,0.113
			c0.826,0,1.583-0.452,2.008-1.247c0.193-0.36,4.499-8.248,6.117-11.211c-0.28,2.432-0.844,7.392-0.995,9.124
			c-0.041,0.098-0.069,0.203-0.075,0.316l-1.305,25.904c-0.001,0.016-0.001,0.032-0.001,0.047c0,0.767,0.628,1.391,1.401,1.391
			h4.611c0.76,0,1.38-0.606,1.398-1.358l1.062-19.299c0.001-0.017,0.034-0.034,0.034-0.052c0,0.021,0.001,0.041,0.002,0.062
			l1.276,19.295c0.021,0.749,0.64,1.352,1.398,1.352h4.611c0.772,0,1.401-0.624,1.401-1.391c0-0.018-0.001-0.037-0.002-0.055
			l-1.52-25.904c-0.006-0.109-0.034-0.212-0.074-0.307c-0.15-1.731-0.715-6.692-0.995-9.124c1.618,2.963,5.924,10.851,6.117,11.211
			c0.546,1.021,1.641,1.477,2.726,1.134C82.474,150.675,83.144,149.385,82.762,148.181z"/>
	</g>
	<g>
		<path fill="#357EBB" d="M187.059,123.319c1.131,0,2.158-0.447,2.92-1.17c0.921,2.245,3.13,3.832,5.703,3.832
			c2.569,0,4.775-1.581,5.699-3.821c0.761,0.717,1.783,1.16,2.909,1.16c0.491,0,0.889-0.398,0.889-0.89
			c0-0.491-0.398-0.889-0.889-0.889c-1.248,0-2.28-0.93-2.445-2.133v-2.38c0-3.398-2.764-6.162-6.162-6.162
			c-3.398,0-6.162,2.764-6.162,6.162v2.235c-0.099,1.273-1.164,2.278-2.461,2.278c-0.491,0-0.889,0.398-0.889,0.889
			C186.169,122.921,186.568,123.319,187.059,123.319z"/>
		<path fill="#357EBB" d="M212.133,148.181l-0.018-0.052c-0.613-1.585-6.179-15.646-6.236-15.788l-0.016-0.037
			c-1.034-2.301-1.779-3.966-4.154-3.844h-12.055c-2.375-0.123-3.12,1.542-4.154,3.844l-0.016,0.037
			c-0.056,0.142-5.622,14.203-6.235,15.788l-0.018,0.052c-0.185,0.583-0.131,1.204,0.15,1.747c0.282,0.543,0.758,0.944,1.342,1.129
			c1.084,0.343,2.179-0.112,2.725-1.134c0.183-0.343,4.258-7.806,5.905-10.823c-1.074,5.149-3.826,18.432-3.876,19.51l-0.001,0.237
			c0,1.244,1.012,2.256,2.256,2.256h0.06l-0.706,12.947c-0.001,0.017-0.001,0.034-0.001,0.051c0,0.767,0.628,1.391,1.401,1.391
			h4.611c0.759,0,1.379-0.605,1.398-1.355l0.79-13.034h0.795l0.79,13.034c0.019,0.751,0.639,1.355,1.398,1.355h4.611
			c0.772,0,1.401-0.624,1.401-1.391c0-0.017,0-0.034-0.001-0.051l-0.706-12.947h0.06c1.244,0,2.256-1.012,2.256-2.256l-0.001-0.236
			c-0.05-1.078-2.802-14.361-3.876-19.51c4.952,9.069,5.83,10.682,5.905,10.823c0.546,1.021,1.642,1.477,2.726,1.134
			c0.583-0.185,1.06-0.586,1.341-1.129C212.265,149.385,212.318,148.764,212.133,148.181z"/>
	</g>
	<g>
		<path fill="#357EBB" d="M158.577,68.648c4.995,0,9.059-4.064,9.059-9.059v-4.22c0-4.995-4.064-9.059-9.059-9.059
			c-4.995,0-9.059,4.064-9.059,9.059v4.22C149.518,64.584,153.582,68.648,158.577,68.648z"/>
		<path fill="#357EBB" d="M182.437,81.523c-0.016-5.413-4.425-9.812-9.841-9.812h-6.23l-0.723,1.097
			c-0.052,0.079-1.295,1.962-2.792,3.897c-2.063,2.666-3.461,3.962-4.274,3.962c-0.813,0-2.212-1.296-4.274-3.962
			c-1.497-1.936-2.74-3.818-2.792-3.898l-0.723-1.097h-6.23c-5.416,0-9.825,4.399-9.841,9.812l-2.441,42.12l-0.002,0.057
			c0,2.289,1.862,4.151,4.151,4.151c2.274,0,4.127-1.838,4.151-4.106l2.764-32.578l0.004-0.084c0-0.327,0.266-0.593,0.593-0.593
			c0.327,0,0.593,0.266,0.593,0.612l0.434,22.084c-0.104,0.165-0.173,0.356-0.184,0.565l-3.269,59.682
			c-0.001,0.022-0.002,0.043-0.002,0.065c0,1.172,0.962,2.125,2.144,2.125h9.563c1.167,0,2.119-0.933,2.139-2.088l2.427-47.006
			c0.001-0.02,0.002-0.041,0.002-0.061c0-0.436,0.357-0.791,0.795-0.791c0.438,0,0.795,0.355,0.795,0.791
			c0,0.02,0.001,0.041,0.002,0.061l2.426,47.006c0.02,1.155,0.972,2.088,2.139,2.088h9.563c1.182,0,2.144-0.953,2.144-2.125
			c0-0.022-0.001-0.043-0.002-0.065l-3.269-59.682c-0.011-0.208-0.08-0.399-0.184-0.565l0.434-22.103
			c0-0.327,0.266-0.593,0.593-0.593c0.327,0,0.593,0.266,0.593,0.593v0.042l2.768,32.619c0.024,2.268,1.877,4.106,4.151,4.106
			c2.289,0,4.151-1.862,4.151-4.151L182.437,81.523z"/>
	</g>
	<path fill="#357EBB" d="M129.55,122.924c-0.488-3.627-5.858-34.964-6.064-36.418c-0.628-4.338-3.941-7.957-8.118-7.892h-0.662
		c-1.088-2.8-1.495-10.109-1.413-14.481c0.029-0.372,0.046-0.75,0.046-1.131c0-6.745-4.641-12.156-10.389-12.156
		c-5.748,0-10.389,5.411-10.389,12.156c0,0.381,0.017,0.758,0.046,1.131c0.082,4.372-0.325,11.68-1.413,14.481h-0.662
		c-4.177-0.066-7.49,3.554-8.118,7.892c-0.206,1.454-5.576,32.791-6.064,36.418c-0.24,1.781,0.362,3.951,2.97,4.836
		c1.053,0.358,2.25,0.17,3.214-0.386c0.964-0.556,1.664-1.454,1.952-2.529l0.014-0.054l6.387-31.228
		c0.085-0.3,0.164-0.418,0.194-0.455c0.008-0.001,0.018-0.002,0.031-0.002c0.109,0,0.198,0.089,0.198,0.198l0.001,0.045
		c0.005,0.137,1.353,10.068,1.353,12.702c0,2.18-8.973,34.709-8.973,37.888c0,3.179,3.52,4.218,5.703,4.218l0.593,0.019
		l-1.673,25.496c-0.003,0.031-0.004,0.063-0.004,0.094c0,1.061,0.872,1.923,1.943,1.923h7.215c1.059,0,1.922-0.846,1.938-1.893
		l1.629-25.001h1.915h1.915l1.629,25.001c0.016,1.046,0.88,1.893,1.938,1.893h7.215c1.072,0,1.943-0.862,1.943-1.923
		c0-0.031-0.001-0.063-0.004-0.094l-1.673-25.496l0.593-0.019c2.183,0,5.703-1.039,5.703-4.218c0-3.179-8.973-35.708-8.973-37.888
		c0-2.635,1.347-12.565,1.353-12.702l0.001-0.045c0-0.109,0.089-0.198,0.198-0.198c0.013,0,0.023,0.001,0.031,0.002
		c0.03,0.036,0.109,0.155,0.194,0.455l6.387,31.228l0.014,0.054c0.288,1.075,0.989,1.972,1.952,2.529
		c0.964,0.556,2.16,0.744,3.214,0.386C129.188,126.876,129.79,124.706,129.55,122.924z M96.927,62.847
		c0-0.111,0.004-0.221,0.01-0.33c5.588-0.067,8.006-1.389,9.049-2.504c0.464-0.497,0.777-1.069,0.929-1.692
		c1.259,1.105,2.056,2.724,2.056,4.526v3.806c0,3.32-2.701,6.021-6.022,6.021c-3.32,0-6.022-2.701-6.022-6.021V62.847z"/>
</g>
</svg>
