<?xml version="1.0" encoding="utf-8"?>
<!-- Generator: Adobe Illustrator 19.1.0, SVG Export Plug-In . SVG Version: 6.00 Build 0)  -->
<svg version="1.1" id="Layer_1" xmlns="http://www.w3.org/2000/svg" xmlns:xlink="http://www.w3.org/1999/xlink" x="0px" y="0px"
	 width="262px" height="222px" viewBox="0 0 262 222" enable-background="new 0 0 262 222" xml:space="preserve">
<g>
	<path fill="#357EBB" d="M132.124,150.284c-16.857,0-30.522-13.664-30.522-30.522c0-16.853,13.664-30.517,30.522-30.517
		c16.857,0,30.522,13.664,30.522,30.517C162.646,136.62,148.982,150.284,132.124,150.284 M132.124,77.502
		c-23.341,0-42.265,18.92-42.265,42.261c0,23.341,18.924,42.265,42.265,42.265c23.341,0,42.265-18.924,42.265-42.265
		C174.389,96.422,155.465,77.502,132.124,77.502"/>
	<path fill="#357EBB" d="M198.491,98.961L198.491,98.961l-0.11-3.931V69.366c0-2.623-0.874-9.283-3.931-9.394
		c-5.569,0-11.377,11.306-11.377,26.379c0,9.937,3.82,11.955,6.77,16.871l0.128,51.544c-0.11,2.513,1.965,4.478,4.368,4.478h1.095
		c2.508,0,4.474-2.076,4.368-4.478L198.491,98.961z"/>
	<path fill="#357EBB" d="M85.397,87.78L85.397,87.78c0,5.379-1.634,10.021-6.17,12.021c-0.106,0-0.212,0.106-0.212,0.106
		c-1.899,0.844-1.793,2.319-1.793,2.319l1.373,52.838c0.102,2.429-1.899,4.324-4.222,4.324h-1.051c-2.429,0-4.328-2.001-4.222-4.324
		l1.373-52.939c0-0.318-0.106-1.479-1.793-2.217c-4.748-2.005-6.488-6.748-6.488-12.233l0.95-22.78c0-1.48,1.162-2.111,1.687-2.111
		V87.78V62.783c0.632,0,1.687,0.738,1.687,2.111l0.95,22.78h3.745l0.95-22.78c0-1.48,1.162-2.111,1.687-2.111V87.78V62.783
		c0.632,0,1.687,0.738,1.687,2.111l0.95,22.78h3.745l0.95-22.78c0-1.48,1.157-2.111,1.687-2.111V87.78V62.783
		c0.632,0,1.687,0.738,1.687,2.111L85.397,87.78z"/>
</g>
</svg>
