<?xml version="1.0" encoding="utf-8"?>
<!-- Generator: Adobe Illustrator 19.1.0, SVG Export Plug-In . SVG Version: 6.00 Build 0)  -->
<svg version="1.1" id="Layer_1" xmlns="http://www.w3.org/2000/svg" xmlns:xlink="http://www.w3.org/1999/xlink" x="0px" y="0px"
	 width="262px" height="222px" viewBox="0 0 262 222" enable-background="new 0 0 262 222" xml:space="preserve">
<g>
	<path fill="#357EBB" d="M197.144,45.464h-40.517c-0.522,0-0.945,0.423-0.945,0.945v12.462v27.007
		c-1.463-0.892-3.163-1.433-5.002-1.433c-5.333,0-9.655,4.323-9.655,9.656c0,5.332,4.323,9.655,9.655,9.655s9.655-4.323,9.655-9.655
		l0-0.002h0.001V58.871h33.097v27.007c-1.463-0.892-3.163-1.433-5.001-1.433c-5.333,0-9.656,4.323-9.656,9.656
		c0,5.332,4.323,9.655,9.656,9.655c5.332,0,9.655-4.323,9.655-9.655l-0.001-0.006h0.001V58.871V46.409
		C198.089,45.887,197.666,45.464,197.144,45.464z"/>
	<g>
		<path fill="#357EBB" d="M98.044,176.53c1.072-33.16,0.566-36.244-7.646-41.673c-7.013-4.64-19.791-2.037-25.447-0.548
			c-0.654,2.635-1.04,5.377-1.04,8.216c0,18.784,15.221,34.01,34.004,34.01C97.959,176.536,98,176.53,98.044,176.53z"/>
		<path fill="#357EBB" d="M109.88,118.839c4.171,4.138,10.222,6.277,17.229,8.755c0.528,0.186,1.074,0.392,1.607,0.58
			c-4.531-9.705-13.481-16.921-24.286-19.018C105.355,112.381,106.961,115.94,109.88,118.839z"/>
		<path fill="#357EBB" d="M125.524,132.082c-7.235-2.557-14.07-4.971-18.999-9.867c-4.211-4.181-6.229-9.351-7.198-13.627
			c-0.472-0.02-0.935-0.071-1.412-0.071c-13.965,0-25.948,8.424-31.184,20.462c7.13-1.566,18.839-3.021,26.293,1.908
			c10.46,6.914,10.861,12.555,9.797,45.255c16.452-2.383,29.104-16.503,29.104-33.616c0-2.954-0.416-5.805-1.124-8.538
			C129.025,133.318,127.259,132.695,125.524,132.082z"/>
	</g>
</g>
</svg>
