<?xml version="1.0" encoding="utf-8"?>
<!-- Generator: Adobe Illustrator 19.1.0, SVG Export Plug-In . SVG Version: 6.00 Build 0)  -->
<svg version="1.1" id="Layer_1" xmlns="http://www.w3.org/2000/svg" xmlns:xlink="http://www.w3.org/1999/xlink" x="0px" y="0px"
	 width="262px" height="222px" viewBox="0 0 262 222" enable-background="new 0 0 262 222" xml:space="preserve">
<g>
	<path fill="#357EBB" d="M55.182,70.505l-12.819,33.406h6.034l3.135-8.844h13.335l3.135,8.844h6.27L61.405,70.505H55.182z
		 M53.124,90.622l5.052-14.364h0.142l5.007,14.364H53.124z"/>
	<path fill="#357EBB" d="M100.005,85.991v-0.094c1.527-0.653,2.706-1.583,3.532-2.784c0.826-1.2,1.241-2.643,1.241-4.328
		c0-2.775-0.906-4.848-2.714-6.221c-1.81-1.373-4.211-2.059-7.205-2.059H78.623v33.406h15.347c2.151,0,4.008-0.242,5.567-0.725
		c1.559-0.485,2.837-1.139,3.836-1.964c0.998-0.826,1.732-1.809,2.2-2.95c0.468-1.138,0.702-2.361,0.702-3.671
		c0-2.277-0.532-4.173-1.592-5.684C103.623,87.402,102.064,86.427,100.005,85.991z M84.472,75.276h9.545
		c1.59,0,2.807,0.344,3.649,1.031c0.842,0.686,1.264,1.87,1.264,3.555c0,1.496-0.468,2.643-1.403,3.437
		c-0.937,0.796-2.106,1.193-3.509,1.193h-9.545V75.276z M98.952,97.757c-0.982,0.921-2.363,1.382-4.14,1.382h-10.34V88.704h10.34
		c1.777,0,3.158,0.445,4.14,1.332c0.984,0.892,1.475,2.16,1.475,3.815C100.426,95.537,99.935,96.837,98.952,97.757z"/>
	<path fill="#357EBB" d="M139.89,96.658c0.733-1.651,1.163-3.476,1.288-5.473h-5.709c-0.125,1.216-0.39,2.355-0.795,3.415
		c-0.405,1.06-0.967,1.987-1.684,2.783c-0.717,0.797-1.576,1.422-2.572,1.87c-1,0.456-2.153,0.68-3.463,0.68
		c-1.777,0-3.314-0.358-4.608-1.076c-1.294-0.716-2.348-1.675-3.158-2.878c-0.811-1.2-1.411-2.563-1.802-4.094
		c-0.39-1.525-0.585-3.086-0.585-4.676c0-1.591,0.195-3.151,0.585-4.68c0.39-1.529,0.99-2.891,1.802-4.095
		c0.81-1.2,1.863-2.159,3.158-2.878c1.294-0.715,2.831-1.076,4.608-1.076c1.216,0,2.284,0.166,3.205,0.495
		c0.92,0.325,1.724,0.787,2.41,1.379c0.686,0.592,1.247,1.295,1.684,2.104c0.436,0.814,0.779,1.701,1.029,2.667h5.849
		c-0.187-1.808-0.672-3.414-1.451-4.816c-0.78-1.405-1.802-2.598-3.065-3.58c-1.263-0.982-2.722-1.731-4.374-2.247
		c-1.654-0.514-3.416-0.772-5.288-0.772c-2.496,0-4.733,0.468-6.714,1.405c-1.98,0.933-3.657,2.198-5.029,3.788
		c-1.373,1.59-2.426,3.448-3.158,5.568c-0.733,2.12-1.101,4.367-1.101,6.739c0,2.399,0.368,4.662,1.101,6.783
		c0.731,2.12,1.785,3.978,3.158,5.568c1.372,1.59,3.049,2.846,5.029,3.766s4.218,1.382,6.714,1.382c2.028,0,3.885-0.329,5.567-0.986
		c1.685-0.653,3.151-1.58,4.399-2.784C138.167,99.738,139.157,98.311,139.89,96.658z"/>
	<path fill="#357EBB" d="M219.321,83.328l-13.539-13.539c-0.423-0.422-1.107-0.422-1.53,0l-62.413,62.414
		c-0.235,0.415-5.233,19.418-5.233,19.418c-0.133,0.532,0.35,1.016,0.884,0.883c0,0,19.003-4.998,19.417-5.233l62.414-62.414
		C219.743,84.436,219.743,83.75,219.321,83.328z M144.343,148.659l-3.947-3.947l2.683-10.752l12.017,12.017L144.343,148.659z"/>
</g>
</svg>
