<?xml version="1.0" encoding="utf-8"?>
<!-- Generator: Adobe Illustrator 19.1.0, SVG Export Plug-In . SVG Version: 6.00 Build 0)  -->
<svg version="1.1" id="Layer_1" xmlns="http://www.w3.org/2000/svg" xmlns:xlink="http://www.w3.org/1999/xlink" x="0px" y="0px"
	 width="262px" height="222px" viewBox="0 0 262 222" enable-background="new 0 0 262 222" xml:space="preserve">
<g>
	<path fill="#357EBB" d="M131,60.587c5.95,0,10.791-4.841,10.791-10.791v-5.027c0-5.95-4.841-10.791-10.791-10.791
		c-5.95,0-10.791,4.841-10.791,10.791v5.027C120.209,55.746,125.05,60.587,131,60.587z"/>
	<path fill="#357EBB" d="M159.424,75.925c-0.019-6.448-5.271-11.688-11.723-11.688h-7.422l-0.862,1.307
		c-0.062,0.095-1.545,2.34-3.326,4.643c-2.457,3.176-4.122,4.72-5.092,4.72c-0.969,0-2.634-1.544-5.091-4.72
		c-1.781-2.303-3.264-4.549-3.326-4.643l-0.861-1.307h-7.421c-6.452,0-11.704,5.24-11.723,11.688l-2.908,50.176l-0.002,0.068
		c0,2.727,2.218,4.945,4.945,4.945c2.709,0,4.916-2.19,4.945-4.892l3.293-38.809l0.004-0.1c0-0.389,0.317-0.706,0.706-0.706
		s0.706,0.317,0.707,0.73l0.516,26.3c-0.126,0.198-0.206,0.43-0.22,0.68l-3.895,71.097c-0.001,0.026-0.002,0.052-0.002,0.077
		c0,1.396,1.146,2.531,2.555,2.531h11.392c1.39,0,2.524-1.112,2.548-2.487l2.891-55.997c0.001-0.024,0.002-0.049,0.002-0.073
		c0-0.519,0.425-0.942,0.947-0.942c0.522,0,0.947,0.423,0.947,0.942c0,0.024,0.001,0.049,0.002,0.073l2.891,55.997
		c0.024,1.376,1.158,2.487,2.548,2.487h11.392c1.409,0,2.554-1.136,2.554-2.531c0-0.026-0.001-0.052-0.002-0.077l-3.895-71.097
		c-0.014-0.251-0.093-0.482-0.22-0.68l0.516-26.323c0-0.389,0.317-0.706,0.706-0.706c0.39,0,0.706,0.317,0.706,0.706v0.05
		l3.297,38.858c0.029,2.702,2.236,4.892,4.945,4.892c2.727,0,4.945-2.218,4.945-4.945v-0.034L159.424,75.925z"/>
</g>
</svg>
