<?xml version="1.0" encoding="utf-8"?>
<!-- Generator: Adobe Illustrator 19.1.0, SVG Export Plug-In . SVG Version: 6.00 Build 0)  -->
<svg version="1.1" id="Layer_1" xmlns="http://www.w3.org/2000/svg" xmlns:xlink="http://www.w3.org/1999/xlink" x="0px" y="0px"
	 width="262px" height="222px" viewBox="0 0 262 222" enable-background="new 0 0 262 222" xml:space="preserve">
<g>
	<path fill="#357EBB" d="M125.559,172.557c-18.251,0-33.1-14.849-33.1-33.1c0-3.043,0.446-5.978,1.219-8.78l-3.439-9.391
		c-2.817,5.453-4.437,11.622-4.437,18.171c0,21.921,17.835,39.756,39.756,39.756c11.925,0,22.613-5.303,29.906-13.646l-1.268-9.588
		C148.467,165.872,137.79,172.557,125.559,172.557z"/>
	<path fill="#357EBB" d="M123.123,69.297c5.911,0,10.719-4.808,10.719-10.719v-5.072c0-5.911-4.808-10.719-10.719-10.719
		c-5.911,0-10.719,4.808-10.719,10.719v5.072C112.404,64.489,117.212,69.297,123.123,69.297z"/>
	<path fill="#357EBB" d="M175.193,158.692l-2.368-37.219c-0.546-2.533-2.394-4.628-4.994-5.512l-2.327-0.446
		c-3.103-0.29-13.188-0.459-19.434-0.514l-7.187-31.752c-1.948-5.846-4.256-9.467-9.729-9.467h-11.135
		c-1.431,0-2.78,0.326-4.005,0.884c-0.423,0.135-0.834,0.325-1.22,0.607c-4.207,3.067-8.236,6.368-12.341,9.567
		c-0.009-0.013-0.022-0.026-0.031-0.04c-3.958,3.089-7.956,6.124-11.857,9.279c-0.308,0.248-0.466,0.548-0.702,0.822
		c-0.012,0.012-0.022,0.025-0.033,0.038c-0.416,0.492-0.727,1.005-0.917,1.559c-0.111,0.288-0.201,0.581-0.253,0.888
		c-0.022,0.178-0.05,0.351-0.05,0.533c-0.027,0.556,0.01,1.122,0.202,1.701c1.726,5.179,3.732,10.264,5.623,15.39
		c-0.014,0.004-0.031,0.009-0.044,0.017c1.819,4.944,3.581,9.905,5.485,14.818c1.229,3.181,4.087,4.282,7.255,2.999
		c2.915-1.184,4.18-3.851,3.124-6.869c-1.243-3.563-2.591-7.086-3.892-10.624c-1.867-5.058-3.732-10.113-5.598-15.168
		c1.718-1.339,3.442-2.668,5.158-4.011c2.026-1.581,4.052-3.164,6.079-4.744l7.271,32.026l-0.025,0.009
		c0.03,0.171,0.102,0.337,0.142,0.507l0.504,2.219l0.27-0.092c1.798,3.682,5.71,6.701,9.612,6.972l27.841,0.05l4.795,36.383
		c0.082,0.62,0.609,1.081,1.233,1.081c0.004,0,0.007,0,0.011,0l13.319-0.178c0.347-0.007,0.676-0.156,0.908-0.414
		c0.23-0.26,0.345-0.605,0.31-0.949L175.193,158.692z"/>
</g>
</svg>
