<?xml version="1.0" standalone="no"?>
<!DOCTYPE svg PUBLIC "-//W3C//DTD SVG 20010904//EN"
 "http://www.w3.org/TR/2001/REC-SVG-20010904/DTD/svg10.dtd">
<svg version="1.0" xmlns="http://www.w3.org/2000/svg"
 width="1040.000000pt" height="1040.000000pt" viewBox="0 0 1040.000000 1040.000000"
 preserveAspectRatio="xMidYMid meet">
<metadata>
Created by potrace 1.11, written by Peter Selinger 2001-2013
</metadata>
<g transform="translate(0.000000,1040.000000) scale(0.100000,-0.100000)"
fill="#000000" stroke="none">
<path d="M5088 9985 c-2 -2 -25 -6 -53 -10 -27 -4 -61 -8 -75 -10 -14 -2 -47
-9 -75 -15 -27 -6 -57 -13 -66 -15 -9 -2 -39 -11 -65 -20 -27 -9 -53 -18 -59
-19 -21 -4 -181 -70 -195 -81 -15 -11 -58 -31 -73 -33 -4 -1 -13 -6 -20 -12
-27 -23 -117 -78 -117 -72 0 3 -6 -1 -12 -9 -7 -8 -40 -35 -73 -60 -77 -57
-207 -186 -270 -269 -27 -36 -52 -67 -55 -70 -3 -3 -16 -25 -29 -50 -13 -25
-29 -52 -36 -60 -34 -42 -128 -292 -141 -375 -3 -22 -8 -43 -10 -47 -7 -11
-16 -125 -17 -213 -1 -90 7 -165 22 -212 5 -18 7 -33 4 -33 -3 0 -1 -6 4 -12
6 -7 15 -27 21 -45 17 -50 80 -143 136 -200 28 -29 55 -53 59 -53 5 0 15 -6
22 -12 34 -30 46 -37 166 -93 47 -21 140 -47 210 -59 19 -3 45 -8 59 -11 40
-10 321 -13 381 -5 196 28 277 49 448 117 286 114 457 232 515 355 47 99 36
183 -33 247 -35 33 -98 51 -136 39 -16 -5 -37 -12 -45 -15 -8 -2 -17 -4 -20
-5 -3 0 -17 -9 -32 -20 -16 -11 -28 -16 -28 -11 0 4 -4 3 -8 -3 -9 -15 -190
-105 -267 -132 -101 -37 -201 -51 -272 -36 -122 25 -188 80 -199 167 -8 61 37
92 136 97 143 6 199 14 292 41 221 65 442 208 568 368 14 17 30 37 35 44 24
29 63 94 70 117 4 14 13 32 19 40 16 19 44 118 55 192 25 176 -25 338 -136
437 -31 28 -60 48 -65 45 -4 -3 -8 -1 -8 4 0 15 -131 65 -205 77 -41 7 -321
16 -327 10z m-106 -426 c38 -56 48 -138 26 -214 -6 -22 -12 -44 -13 -50 -4
-29 -68 -156 -104 -205 -68 -92 -138 -145 -183 -138 -52 8 -77 102 -53 206 7
28 10 52 7 52 -2 0 1 7 8 15 6 8 9 19 5 25 -3 5 -1 10 4 10 6 0 10 3 10 8 -4
18 15 72 24 72 6 0 8 3 4 6 -9 9 40 103 81 153 49 60 88 83 136 78 21 -3 43
-11 48 -18z"/>
<path d="M1765 9954 c-38 -6 -73 -10 -77 -7 -5 2 -8 -1 -8 -8 0 -7 -3 -10 -6
-7 -7 7 -165 -34 -254 -67 -107 -38 -225 -87 -230 -94 -5 -7 -39 -24 -52 -25
-4 -1 -13 -7 -19 -13 -7 -7 -17 -13 -21 -13 -5 0 -14 -4 -21 -10 -7 -5 -32
-26 -57 -46 -25 -20 -54 -50 -65 -68 -10 -17 -22 -33 -25 -36 -14 -14 -14
-105 1 -142 12 -30 54 -62 69 -53 6 3 10 3 10 -2 0 -4 25 -8 55 -8 64 -1 104
-25 117 -71 8 -27 3 -230 -6 -299 -14 -95 -30 -201 -41 -255 -3 -14 -9 -47
-15 -75 -5 -27 -12 -61 -14 -75 -3 -14 -23 -117 -46 -230 -61 -307 -60 -385 9
-455 46 -48 116 -69 221 -66 177 4 210 6 210 14 0 4 3 6 8 5 4 -1 32 1 62 6
30 4 56 7 57 7 12 -3 127 48 163 72 107 71 163 207 185 452 2 22 6 60 9 85 3
25 8 64 11 88 2 23 7 48 11 54 4 7 3 8 -4 4 -9 -5 -10 -1 -3 16 4 13 11 46 15
73 12 80 16 109 22 127 5 16 10 39 20 87 31 152 128 311 216 357 63 33 178 13
178 -31 0 -8 4 -15 9 -15 6 0 10 -8 10 -17 2 -57 -4 -148 -9 -148 -1 0 -3 -16
-5 -35 -1 -19 -5 -57 -10 -85 -4 -27 -9 -61 -10 -75 -5 -37 -16 -109 -20 -130
-2 -9 -6 -33 -9 -51 -8 -46 -14 -77 -20 -97 -3 -9 -8 -33 -11 -52 -3 -19 -7
-46 -10 -60 -3 -14 -7 -41 -11 -60 -3 -19 -7 -42 -9 -50 -4 -21 -16 -108 -19
-152 -2 -20 -7 -41 -10 -47 -4 -6 -2 -11 5 -11 7 0 8 -5 3 -12 -8 -11 -10 -71
-4 -88 1 -3 4 -18 6 -34 8 -45 39 -100 77 -133 81 -71 220 -84 422 -38 132 30
202 53 312 101 17 8 36 14 42 14 6 0 11 3 11 8 0 4 19 16 43 27 23 11 44 22
47 25 3 3 21 17 40 31 112 83 170 192 148 276 -8 32 -50 70 -84 76 -41 8 -74
27 -90 52 -29 45 -21 166 32 440 2 10 6 35 9 55 3 20 8 47 11 60 2 14 6 39 9
55 2 17 8 55 14 85 13 69 19 101 27 159 4 25 8 54 10 64 2 10 6 63 10 118 7
107 -4 175 -38 243 -23 46 -122 146 -143 146 -8 0 -15 4 -15 9 0 7 -13 14 -50
25 -3 1 -10 4 -15 8 -29 18 -142 35 -222 32 -96 -3 -92 -2 -177 -28 -60 -18
-281 -126 -296 -145 -3 -4 -30 -22 -60 -41 -30 -19 -57 -37 -60 -40 -10 -11
-141 -91 -165 -100 -56 -21 -81 8 -105 125 -10 48 -16 74 -20 85 -1 3 -3 10
-4 15 0 6 -12 29 -25 52 -41 72 -114 91 -256 67z"/>
<path d="M6927 9964 c-1 -2 -23 -6 -47 -9 -25 -3 -52 -7 -60 -10 -8 -2 -28 -7
-45 -10 -66 -11 -87 -16 -196 -45 -63 -16 -152 -44 -199 -61 -47 -17 -91 -31
-97 -32 -7 0 -13 -4 -13 -9 0 -4 -4 -8 -9 -8 -5 0 -22 -5 -38 -11 -15 -6 -30
-11 -33 -12 -10 -2 -34 -23 -79 -67 -53 -52 -69 -93 -65 -169 4 -94 33 -124
136 -140 70 -12 103 -38 95 -78 -2 -13 0 -23 5 -23 5 0 7 -3 5 -7 -3 -5 -8
-33 -11 -63 -7 -63 -9 -77 -37 -222 -11 -59 -22 -118 -24 -130 -48 -298 -47
-290 -49 -421 -4 -211 52 -364 176 -482 69 -66 138 -104 238 -131 88 -23 297
-23 395 1 39 9 78 17 88 18 9 1 17 5 17 9 0 4 3 7 8 6 15 -4 90 23 152 55 94
48 183 99 198 114 7 7 17 13 22 13 5 0 15 6 22 13 25 23 123 87 135 87 6 0 13
4 15 10 2 5 44 -30 94 -78 50 -48 99 -94 110 -102 97 -73 177 -112 292 -141
71 -18 114 -23 232 -23 80 0 170 6 200 12 30 6 70 14 89 17 19 3 39 9 45 13 6
4 14 7 19 8 4 1 9 3 12 4 3 1 10 4 15 5 6 1 11 3 13 5 1 1 10 3 20 5 20 4 189
85 197 94 3 3 32 24 65 45 104 68 254 229 341 366 32 51 125 230 119 230 -2 0
7 25 20 55 14 30 27 65 29 79 2 13 9 33 14 43 6 10 10 21 11 26 1 7 2 11 6 25
2 10 15 72 20 97 2 11 4 20 5 20 2 0 8 32 15 80 3 22 7 50 10 63 9 46 18 189
18 277 1 368 -75 528 -274 580 -52 14 -196 14 -234 0 -127 -46 -175 -97 -180
-190 -4 -77 14 -134 101 -309 19 -38 34 -77 34 -87 0 -10 4 -20 9 -23 8 -6 20
-46 28 -101 3 -16 8 -36 12 -45 4 -8 6 -67 5 -130 -1 -101 -7 -145 -29 -237
-3 -13 -7 -32 -10 -44 -2 -12 -9 -27 -15 -33 -5 -7 -7 -15 -4 -18 3 -3 -11
-41 -32 -84 -102 -219 -232 -325 -397 -328 -43 0 -81 4 -85 9 -4 6 -16 15 -27
21 -11 5 -33 37 -50 70 -29 58 -29 62 -30 214 0 115 5 178 19 245 11 50 20 97
21 105 1 8 5 22 9 30 3 8 15 58 26 110 12 52 23 104 25 115 3 11 7 30 9 43 3
13 7 31 10 40 3 9 8 31 11 47 64 333 64 480 2 542 -31 32 -99 50 -172 47 -87
-3 -227 -13 -250 -18 -11 -2 -45 -7 -75 -12 -30 -4 -57 -8 -60 -9 -95 -25
-190 -63 -190 -76 0 -5 -6 -9 -12 -9 -19 0 -89 -78 -114 -125 -42 -79 -50
-117 -59 -283 -3 -56 -8 -122 -11 -145 -2 -23 -6 -62 -9 -87 -2 -25 -7 -56
-10 -70 -3 -14 -7 -43 -10 -65 -9 -80 -60 -281 -86 -343 -10 -23 -19 -46 -20
-50 -9 -49 -94 -177 -149 -226 -34 -30 -122 -66 -149 -61 -9 2 -23 4 -32 4
-29 2 -62 40 -80 94 -15 43 -18 75 -14 182 2 72 6 139 8 150 3 11 8 40 12 65
9 56 13 78 20 110 7 33 14 68 21 105 3 17 10 50 15 75 6 25 13 56 15 70 2 14
7 39 11 55 4 17 7 41 8 55 2 14 3 25 5 25 1 0 4 11 5 25 2 14 7 45 11 70 4 25
8 55 8 68 1 12 3 22 6 22 8 0 5 223 -4 260 -15 62 -71 127 -116 134 -3 1 -9 4
-15 7 -10 6 -172 9 -178 3z"/>
<path d="M857 7144 c-1 -1 -24 -5 -52 -9 -127 -18 -135 -20 -250 -50 -130 -34
-264 -80 -343 -118 -69 -34 -156 -111 -173 -154 -24 -61 -13 -183 17 -183 7 0
14 -4 16 -10 2 -5 28 -12 58 -15 149 -15 165 -22 179 -72 9 -30 6 -215 -4
-288 -3 -22 -8 -62 -10 -90 -6 -56 -28 -208 -41 -280 -3 -16 -7 -48 -9 -70 -2
-22 -5 -42 -6 -45 -1 -3 -3 -9 -4 -15 -2 -5 -4 -12 -5 -15 -1 -3 -3 -16 -5
-30 -3 -30 -13 -84 -22 -125 -4 -16 -7 -34 -8 -40 -4 -50 -30 -173 -36 -170
-4 3 -5 -4 -2 -14 3 -10 0 -43 -6 -73 -6 -29 -13 -66 -16 -83 -3 -16 -7 -41
-10 -55 -3 -14 -10 -52 -15 -85 -26 -159 -30 -178 -35 -205 -3 -14 -7 -36 -10
-50 -3 -14 -7 -36 -10 -50 -4 -14 -8 -34 -10 -45 -12 -72 -19 -108 -30 -170
-41 -212 22 -320 209 -358 59 -13 180 -14 241 -3 37 6 70 14 70 16 0 1 9 3 20
5 54 8 172 58 244 103 61 38 82 60 112 116 22 41 25 53 43 161 4 26 8 54 21
165 2 14 6 48 10 75 3 28 8 64 10 80 3 25 21 116 51 264 3 14 7 28 9 31 2 4 7
21 10 38 10 58 74 224 107 279 74 122 156 171 246 147 13 -4 34 -26 49 -51 22
-38 26 -56 25 -116 -1 -67 -5 -102 -15 -152 -3 -11 -8 -40 -13 -65 -4 -25 -8
-47 -9 -50 -1 -3 -4 -18 -8 -35 -4 -16 -10 -41 -12 -55 -26 -122 -33 -155 -40
-187 -17 -76 -38 -178 -40 -193 -1 -8 -4 -28 -8 -45 -23 -106 -29 -254 -14
-324 20 -94 79 -160 169 -190 21 -7 42 -10 47 -7 5 4 12 2 16 -4 8 -14 176 -5
255 13 140 33 292 92 405 156 74 42 175 121 201 156 10 15 25 33 31 40 19 20
50 107 48 135 -3 62 -6 70 -27 84 -13 8 -43 18 -68 21 -87 13 -115 42 -113
120 2 65 18 199 33 270 6 28 13 65 16 84 3 18 8 43 10 55 9 41 18 89 30 171 3
17 9 50 14 75 33 156 47 459 21 468 -6 2 -9 8 -6 12 15 25 -65 157 -115 191
-19 13 -41 30 -48 36 -7 7 -52 25 -100 39 -70 22 -106 27 -182 26 -52 -1 -105
-3 -117 -6 -13 -4 -31 -8 -40 -10 -68 -16 -288 -113 -303 -134 -3 -4 -26 -20
-52 -35 -26 -15 -53 -33 -60 -40 -27 -27 -181 -127 -202 -133 -34 -8 -48 16
-42 76 3 28 7 59 10 68 3 9 8 33 11 52 3 19 9 60 15 90 11 60 19 112 25 159 2
17 6 38 9 48 2 10 7 41 11 68 3 28 8 59 10 70 9 39 16 81 21 120 2 22 7 56 10
75 8 55 12 204 5 215 -3 6 -6 12 -6 15 -2 19 -32 70 -42 70 -7 0 -13 4 -13 9
0 22 -107 41 -233 39 -70 -1 -128 -2 -130 -4z"/>
<path d="M4177 6334 c-1 -1 -31 -4 -67 -8 -74 -6 -136 -15 -165 -21 -82 -18
-148 -36 -195 -51 -30 -10 -57 -18 -60 -19 -28 -9 -144 -59 -150 -65 -3 -3
-10 -6 -15 -7 -6 -1 -39 -18 -75 -39 -36 -20 -75 -42 -87 -48 -13 -6 -23 -14
-23 -18 0 -5 -4 -8 -10 -8 -9 0 -48 -27 -139 -99 -68 -53 -231 -223 -231 -240
0 -6 -4 -11 -9 -11 -12 0 -105 -146 -149 -234 -45 -91 -83 -192 -75 -200 4 -3
2 -6 -4 -6 -5 0 -10 -6 -11 -12 0 -7 -12 -65 -25 -128 -20 -94 -24 -140 -23
-250 1 -82 8 -151 16 -175 40 -121 53 -151 86 -203 101 -157 290 -272 522
-318 12 -2 34 -6 50 -9 104 -21 381 -20 492 1 52 9 65 12 65 14 0 1 18 4 40 6
21 3 44 9 51 15 7 5 16 9 20 7 14 -4 128 37 259 91 57 24 217 108 263 139 73
48 153 131 181 188 35 70 37 152 5 199 -13 20 -24 39 -24 44 0 14 -94 51 -120
47 -47 -7 -82 -19 -123 -42 -274 -152 -465 -212 -587 -182 -19 5 -42 10 -51
12 -56 14 -134 96 -137 146 -6 74 30 100 148 105 90 4 177 13 205 23 11 3 27
7 35 7 8 1 28 7 43 13 16 7 33 12 38 12 17 0 184 73 187 82 2 4 8 8 14 8 8 0
90 52 166 105 20 14 143 136 167 166 38 47 65 88 65 98 0 5 3 11 8 13 13 6 60
110 63 143 0 6 4 15 9 20 23 29 40 226 26 295 -3 14 -8 34 -10 45 -2 11 -9 34
-16 50 -6 17 -12 32 -12 35 -2 16 -64 94 -103 128 -36 32 -116 80 -145 87 -3
1 -23 6 -45 13 -38 10 -66 17 -125 28 -25 4 -208 12 -213 8z m-180 -429 c40
-41 50 -134 23 -237 -15 -57 -62 -168 -72 -168 -5 0 -8 -6 -8 -13 0 -7 -9 -23
-20 -35 -11 -12 -20 -25 -20 -30 0 -16 -98 -102 -132 -117 -41 -16 -75 -4 -95
35 -28 56 4 237 65 370 14 30 24 58 24 63 -1 4 3 7 10 7 6 0 9 3 5 6 -11 11
107 139 121 130 5 -3 14 0 22 5 18 11 57 3 77 -16z"/>
<path d="M5858 6335 c-2 -2 -23 -5 -48 -9 -80 -10 -196 -46 -254 -78 -11 -7
-23 -13 -26 -13 -3 -1 -23 -9 -45 -19 -22 -10 -67 -28 -100 -41 -97 -38 -180
-76 -186 -87 -3 -5 -10 -10 -15 -10 -39 -3 -138 -102 -151 -150 -11 -41 -6
-147 7 -163 7 -8 9 -15 5 -15 -11 0 26 -40 47 -51 17 -9 46 -14 143 -24 80 -8
96 -25 99 -103 2 -73 -13 -263 -29 -342 -19 -99 -24 -133 -19 -141 3 -5 0 -9
-7 -9 -7 0 -10 -2 -7 -5 3 -4 2 -24 -3 -46 -9 -39 -19 -96 -25 -134 -1 -11 -3
-21 -4 -22 -3 -4 -5 -11 -15 -68 -4 -27 -9 -54 -11 -60 -4 -15 -23 -116 -29
-155 -3 -19 -8 -46 -10 -60 -14 -66 -13 -176 2 -219 15 -43 61 -101 81 -101 6
0 12 -4 14 -9 3 -9 20 -14 85 -25 7 -1 14 -4 17 -7 10 -10 341 10 341 21 0 1
14 3 30 5 135 15 289 85 355 163 32 37 67 105 76 146 3 11 8 32 11 46 3 14 7
68 8 120 2 52 4 95 4 95 1 0 4 38 6 85 3 47 7 100 10 118 5 34 17 168 18 210
1 12 3 22 7 22 3 0 5 26 5 58 1 53 11 167 18 202 14 68 20 89 33 117 16 35 48
58 65 48 5 -4 38 -50 72 -103 62 -95 117 -148 162 -154 11 -2 25 -6 30 -10 12
-7 137 -3 180 6 79 17 170 85 215 161 13 22 29 43 34 47 6 4 8 8 4 8 -4 0 -1
15 7 34 23 55 37 126 40 205 8 241 -115 430 -330 504 -56 20 -206 15 -265 -8
-106 -42 -155 -95 -253 -276 -51 -94 -101 -120 -134 -70 -9 14 -18 31 -20 36
-1 6 -11 52 -22 103 -37 166 -76 218 -174 226 -26 2 -48 2 -49 1z"/>
<path d="M8657 6334 c-1 -1 -38 -4 -82 -8 -80 -6 -118 -11 -165 -22 -14 -3
-36 -8 -50 -10 -25 -5 -122 -30 -150 -40 -8 -3 -17 -5 -20 -6 -3 0 -13 -4 -23
-10 -10 -5 -27 -11 -37 -13 -56 -11 -328 -158 -396 -214 -18 -14 -47 -37 -65
-51 -18 -14 -43 -34 -55 -45 -12 -11 -35 -32 -50 -46 -37 -33 -112 -116 -144
-159 -14 -18 -35 -46 -47 -61 -13 -15 -23 -30 -23 -33 0 -4 -12 -25 -27 -49
-45 -71 -92 -168 -120 -252 -29 -87 -29 -87 -38 -130 -3 -16 -11 -48 -16 -70
-36 -148 -28 -369 17 -487 7 -21 10 -38 6 -38 -4 0 -2 -4 3 -8 6 -4 22 -29 35
-56 28 -55 155 -196 176 -196 8 0 14 -4 14 -8 0 -5 12 -15 28 -23 15 -8 29
-16 32 -19 12 -13 148 -70 166 -70 11 0 24 -4 29 -8 9 -8 53 -19 150 -37 78
-15 299 -21 390 -11 132 15 142 17 235 41 100 25 235 74 340 122 30 14 57 24
59 23 2 -1 7 2 10 7 3 4 24 17 46 28 129 64 253 173 293 257 43 93 30 186 -36
244 -76 66 -126 56 -369 -74 -51 -27 -95 -47 -98 -44 -3 3 -5 0 -5 -7 0 -7 -6
-11 -14 -8 -8 3 -16 2 -18 -2 -3 -7 -98 -37 -153 -48 -56 -11 -150 -6 -201 11
-71 23 -131 77 -145 128 -21 81 20 118 135 121 42 1 76 4 76 7 0 3 17 5 38 5
95 1 258 49 387 115 194 99 375 273 462 443 58 115 77 199 76 337 -1 267 -168
431 -473 466 -49 6 -179 12 -183 8z m-215 -413 c11 -2 49 -59 53 -81 2 -11 6
-23 8 -28 11 -18 -17 -153 -45 -221 -55 -132 -154 -257 -226 -286 -84 -35
-127 54 -96 199 17 79 51 181 77 231 12 22 21 43 22 46 0 4 11 21 25 39 70 92
106 112 182 101z"/>
<path d="M9949 5076 c-2 -2 -28 -7 -56 -10 -119 -13 -228 -67 -309 -153 -40
-43 -91 -124 -99 -160 -3 -10 -9 -38 -15 -63 -22 -90 -16 -178 21 -278 46
-126 164 -231 300 -266 74 -20 201 -13 282 14 37 13 67 27 67 31 0 5 6 9 13 9
14 0 53 32 115 93 48 47 105 156 120 232 16 75 8 201 -16 263 -11 28 -18 52
-16 52 8 0 -19 31 -82 96 -49 50 -137 108 -164 107 -3 -1 -15 3 -28 8 -13 5
-43 11 -68 14 -25 2 -48 7 -53 9 -4 3 -10 4 -12 2z"/>
<path d="M0 3028 l0 -168 113 -1 c223 -1 247 0 257 6 5 3 10 3 10 -2 0 -9 443
-8 466 1 8 3 14 2 14 -2 0 -8 445 -6 466 2 8 3 14 2 14 -2 0 -8 445 -6 466 2
8 3 14 2 14 -2 0 -8 445 -6 466 2 8 3 14 2 14 -2 0 -7 593 -6 622 2 10 2 18 1
18 -2 0 -4 114 -7 253 -7 138 0 261 -4 272 -9 11 -5 26 -10 33 -12 35 -7 110
-64 203 -154 152 -148 552 -538 769 -750 104 -102 303 -295 441 -430 138 -135
316 -308 394 -385 183 -178 553 -537 568 -550 43 -37 94 -68 156 -99 39 -19
71 -33 71 -31 0 2 15 -1 33 -6 62 -19 73 -21 172 -24 63 -2 124 2 165 11 79
18 78 18 113 32 16 7 33 12 38 12 5 0 9 5 9 10 0 6 3 9 8 8 24 -7 168 97 228
165 34 38 118 171 119 187 1 3 6 14 11 25 13 23 31 95 39 152 3 21 8 44 10 50
2 7 0 13 -6 13 -6 0 -7 5 -2 13 4 6 9 341 10 742 1 402 3 736 4 743 1 6 6 12
11 12 5 0 7 4 4 8 -10 16 45 111 90 157 74 73 146 104 262 111 35 2 67 6 72 9
6 4 10 3 10 -2 0 -9 122 -8 146 1 7 3 14 2 14 -2 0 -8 204 -6 226 2 8 3 14 2
14 -2 0 -8 445 -6 466 2 8 3 14 2 14 -2 0 -8 445 -6 466 2 8 3 14 2 14 -2 0
-8 445 -6 466 2 8 3 14 2 14 -2 0 -8 445 -6 466 2 8 3 14 2 14 -2 0 -8 445 -6
466 2 8 3 14 2 14 -2 0 -4 21 -6 47 -6 l48 1 3 170 2 169 -1537 -1 c-846 -1
-1551 -5 -1568 -9 -16 -4 -55 -14 -85 -23 -30 -9 -58 -16 -62 -15 -5 1 -8 -2
-8 -7 0 -8 -37 -24 -52 -22 -5 1 -8 -3 -8 -9 0 -5 -5 -10 -12 -10 -13 0 -105
-68 -145 -108 -114 -112 -192 -269 -209 -420 -4 -35 -7 -392 -8 -795 -2 -798
0 -770 -59 -865 -45 -70 -145 -144 -216 -157 -9 -2 -16 -4 -16 -5 0 -1 -11 -3
-25 -5 -113 -14 -192 4 -272 61 -26 18 -127 111 -224 206 -207 203 -285 280
-668 653 -158 154 -357 348 -441 430 -84 83 -164 159 -177 171 -12 12 -30 30
-39 40 -9 10 -126 125 -260 255 -134 130 -298 290 -364 354 -66 64 -138 129
-160 145 -62 43 -153 90 -175 90 -10 0 -21 4 -24 9 -3 4 -34 14 -68 22 -51 10
-392 13 -1790 14 l-1728 1 0 -168z"/>
</g>
</svg>
