<?xml version="1.0" encoding="utf-8"?>
<!-- Generator: Adobe Illustrator 19.1.0, SVG Export Plug-In . SVG Version: 6.00 Build 0)  -->
<svg version="1.1" id="Ebene_1" xmlns="http://www.w3.org/2000/svg" xmlns:xlink="http://www.w3.org/1999/xlink" x="0px" y="0px"
	 width="259.92px" height="239.7px" viewBox="0 0 259.92 239.7" enable-background="new 0 0 259.92 239.7" xml:space="preserve">
<g>
	<path fill="#357DBA" d="M61.831,20.646c0-1.859-0.929-3.304-2.89-3.304c-7.535,0-8.877,15.69-9.497,21.988
		c-1.032,11.355-3.304,14.038-16.62,14.761c-3.716,0.207-7.535-0.826-7.535-5.368c0-5.161,4.748-20.645,4.439-29.626
		c0-2.064-0.723-3.304-2.89-3.304h-1.032c-2.065,0-2.89-1.239-2.89-3.303c0-2.89,2.994-4.955,5.265-6.193
		c4.335-2.581,13.832-5.678,18.787-5.678c6.297,0,3.51,9.084,6.71,9.084c2.58,0,11.045-9.187,20.026-9.187
		c5.987,0,11.768,3.51,11.768,10.013c0,7.329-3.613,19.716-3.613,26.013c0,4.129,4.955,1.549,4.955,5.574
		c0,7.536-15.587,11.974-21.471,11.974c-4.542,0-7.432-2.271-7.432-6.916c0-5.265,1.858-11.974,2.684-17.342L61.831,20.646z"/>
	<path fill="#357DBA" d="M145.853,12.284c0,12.49-13.935,22.194-25.6,22.194c-1.445,0-4.026,0-4.026,2.167
		c0,2.994,3.716,4.645,6.297,4.645c7.432,0,13.11-5.884,16.413-5.884c2.168,0,4.129,2.271,4.129,4.335
		c0,5.471-6.916,8.878-11.148,10.839c-5.781,2.581-11.355,4.129-17.858,4.129c-12.594,0-23.535-5.471-23.02-19.303
		C91.968,13.935,111.994,0,130.782,0C138.937,0,145.853,3.2,145.853,12.284z M116.021,23.123c0,1.239,0.413,2.89,1.858,2.89
		c2.89,0,7.948-7.638,7.639-12.594c-0.103-1.342-0.722-3.2-2.374-3.2C118.911,10.219,116.021,19.819,116.021,23.123z"/>
	<path fill="#357DBA" d="M190.855,45.936c-1.549,0-9.497,8.774-21.884,8.774c-9.394,0-14.968-6.193-14.968-15.38
		c0-6.606,2.994-17.961,2.994-21.368c0-2.58-0.826-2.58-3.097-2.787c-2.168-0.206-2.89-1.755-2.89-3.819
		c0-4.129,3.51-5.574,6.916-6.813c4.439-1.755,13.11-4.026,17.755-4.026c4.439,0,5.471,2.787,5.471,6.813
		c0,6.503-2.994,16.517-3.819,23.639c-0.413,4.645-0.104,9.187,2.89,9.187c9.29,0,11.252-20.955,11.355-26.942
		c0.207-11.045,8.052-12.077,18.787-12.594c3.819-0.206,5.677,0.929,5.677,5.059c0,8.981-4.438,19.612-4.645,27.045
		c-0.103,5.368,0.826,8.981,4.748,8.981c8.464,0,12.49-11.768,12.49-18.788c0-8.671-4.955-12.18-4.955-17.032
		c0-3.923,4.232-5.368,7.535-5.368c7.845,0,9.6,5.677,9.807,12.594c0.722,21.264-10.633,41.6-32.31,41.6
		C196.222,54.71,192.093,45.936,190.855,45.936z"/>
	<path fill="#357DBA" d="M29.316,95.792c-0.31,1.548-1.136,4.748,0.31,4.748c1.858,0,10.116-9.187,19.51-9.187
		c7.019,0,11.768,3.51,11.768,10.839c0,7.742-3.406,18.994-3.51,24.878c-0.103,5.368,5.574,0.722,5.265,5.78
		c-0.516,7.329-16.103,13.007-22.091,12.594c-5.264-0.309-7.535-2.58-7.535-7.845c0-6.71,4.336-19.819,4.336-25.084
		c0-2.064-0.723-4.335-2.994-4.335c-7.742,0-9.704,20.749-10.219,24.774c-0.31,2.478-0.516,6.091-2.374,7.949
		c-2.581,2.683-9.187,4.748-12.8,4.748c-4.232,0-8.981-1.136-8.981-6.194c0-2.684,1.445-8.051,1.858-10.942
		c1.136-7.948,6.091-30.452,6.091-40.258c0-2.168-0.31-3.407-2.787-3.51c-2.374-0.103-4.645,0.103-4.645-3.2
		c0-4.645,5.884-6.71,9.497-7.845c4.852-1.549,10.219-2.787,15.277-2.787c3.923,0,6.916,0.619,6.916,4.955
		c0,3.51-1.342,9.91-1.858,13.523L29.316,95.792z"/>
	<path fill="#357DBA" d="M121.286,103.637c0,12.49-13.935,22.194-25.6,22.194c-1.445,0-4.026,0-4.026,2.167
		c0,2.994,3.716,4.645,6.297,4.645c7.432,0,13.11-5.884,16.413-5.884c2.168,0,4.129,2.271,4.129,4.335
		c0,5.471-6.916,8.878-11.148,10.839c-5.781,2.581-11.355,4.129-17.858,4.129c-12.594,0-23.535-5.471-23.02-19.303
		c0.929-21.471,20.955-35.407,39.742-35.407C114.37,91.353,121.286,94.553,121.286,103.637z M91.453,114.476
		c0,1.239,0.413,2.89,1.858,2.89c2.89,0,7.948-7.638,7.639-12.594c-0.103-1.342-0.722-3.2-2.374-3.2
		C94.343,101.572,91.453,111.172,91.453,114.476z"/>
	<path fill="#357DBA" d="M154.829,130.992c0.619,10.013-3.716,13.935-17.858,14.555c-3.819,0.207-7.949-0.826-7.949-5.471
		c0-6.193,4.129-19.097,4.336-28.697c0.103-2.787-0.207-3.613-2.994-3.613c-3.2,0-4.852-0.826-4.852-4.541
		c0-5.574,8.361-7.226,12.284-9.187c2.787-1.446,6.193-2.684,9.497-2.684c6.297,0,3.51,9.806,6.813,9.806
		c2.994,0,2.684-9.909,12.284-9.909c6.71,0,11.251,5.781,11.251,12.284c0,6.297-3.097,12.387-10.116,12.387
		c-3.716,0-5.161-1.445-6.916-4.438c-0.31-0.619-1.239-2.477-2.065-2.477c-1.445,0-2.065,4.335-2.168,5.264L154.829,130.992z"/>
	<path fill="#357DBA" d="M232.866,103.637c0,12.49-13.935,22.194-25.6,22.194c-1.445,0-4.026,0-4.026,2.167
		c0,2.994,3.716,4.645,6.297,4.645c7.432,0,13.11-5.884,16.413-5.884c2.168,0,4.129,2.271,4.129,4.335
		c0,5.471-6.916,8.878-11.148,10.839c-5.781,2.581-11.355,4.129-17.858,4.129c-12.594,0-23.535-5.471-23.02-19.303
		c0.929-21.471,20.955-35.407,39.742-35.407C225.95,91.353,232.866,94.553,232.866,103.637z M203.034,114.476
		c0,1.239,0.413,2.89,1.858,2.89c2.89,0,7.948-7.638,7.639-12.594c-0.103-1.342-0.722-3.2-2.374-3.2
		C205.924,101.572,203.034,111.172,203.034,114.476z"/>
	<path fill="#357DBA" d="M259.906,134.398c-0.31,7.226-5.987,12.077-12.284,12.077c-6.297,0-11.562-4.852-11.252-12.077
		c0.31-6.917,5.987-11.458,12.284-11.458C254.951,122.94,260.216,127.482,259.906,134.398z"/>
	<path fill="#357DBA" d="M259.92,169.783h-74.407c-4.929-0.002-9.43,2.01-12.655,5.242c-3.232,3.225-5.244,7.726-5.242,12.655
		v34.097c-0.002,1.481-0.297,2.764-0.8,3.9c-0.754,1.698-2.001,3.085-3.551,4.064c-1.548,0.978-3.381,1.517-5.196,1.515
		c-1.141-0.001-2.273-0.207-3.363-0.642c-1.09-0.437-2.145-1.1-3.143-2.073l-54.988-53.668c-3.343-3.263-7.829-5.089-12.5-5.089H0
		v8.445l84.075,0c2.466,0,4.836,0.965,6.601,2.688l54.988,53.668c1.772,1.732,3.791,3.027,5.908,3.871
		c2.118,0.846,4.327,1.245,6.497,1.245c4.612-0.006,9.047-1.77,12.406-4.902c1.677-1.568,3.081-3.489,4.06-5.695
		c0.981-2.204,1.527-4.692,1.525-7.326V187.68c0.002-2.624,1.051-4.96,2.768-6.683c1.724-1.717,4.06-2.766,6.684-2.768h74.407
		V169.783L259.92,169.783z"/>
</g>
</svg>
