<?xml version="1.0" encoding="utf-8"?>
<!-- Generator: Adobe Illustrator 16.0.0, SVG Export Plug-In . SVG Version: 6.00 Build 0)  -->
<!DOCTYPE svg PUBLIC "-//W3C//DTD SVG 1.1//EN" "http://www.w3.org/Graphics/SVG/1.1/DTD/svg11.dtd">
<svg version="1.1" id="Ebene_1" xmlns="http://www.w3.org/2000/svg" xmlns:xlink="http://www.w3.org/1999/xlink" x="0px" y="0px"
	 width="259.92px" height="239.7px" viewBox="0 0 259.92 239.7" enable-background="new 0 0 259.92 239.7" xml:space="preserve">
<g>
	<path fill="#FFFFFF" d="M61.831,20.646c0-1.859-0.929-3.304-2.89-3.304c-7.535,0-8.877,15.69-9.497,21.988
		c-1.032,11.355-3.304,14.038-16.62,14.761c-3.716,0.207-7.535-0.826-7.535-5.368c0-5.161,4.748-20.645,4.439-29.626
		c0-2.064-0.723-3.304-2.89-3.304h-1.032c-2.065,0-2.89-1.239-2.89-3.303c0-2.89,2.994-4.955,5.265-6.193
		c4.335-2.581,13.832-5.678,18.787-5.678c6.297,0,3.51,9.084,6.71,9.084c2.58,0,11.045-9.187,20.026-9.187
		c5.987,0,11.768,3.51,11.768,10.013c0,7.329-3.613,19.716-3.613,26.013c0,4.129,4.955,1.549,4.955,5.574
		c0,7.536-15.587,11.974-21.471,11.974c-4.542,0-7.432-2.271-7.432-6.916c0-5.265,1.858-11.974,2.684-17.342L61.831,20.646z"/>
	<path fill="#FFFFFF" d="M145.853,12.284c0,12.49-13.935,22.194-25.6,22.194c-1.445,0-4.026,0-4.026,2.167
		c0,2.994,3.716,4.645,6.297,4.645c7.432,0,13.11-5.884,16.413-5.884c2.168,0,4.129,2.271,4.129,4.335
		c0,5.471-6.916,8.878-11.147,10.839c-5.781,2.581-11.355,4.129-17.858,4.129c-12.594,0-23.535-5.471-23.02-19.303
		C91.968,13.935,111.994,0,130.782,0C138.937,0,145.853,3.2,145.853,12.284z M116.021,23.123c0,1.239,0.413,2.89,1.858,2.89
		c2.89,0,7.948-7.638,7.639-12.594c-0.103-1.342-0.722-3.2-2.374-3.2C118.911,10.219,116.021,19.819,116.021,23.123z"/>
	<path fill="#FFFFFF" d="M190.854,45.936c-1.549,0-9.496,8.774-21.883,8.774c-9.395,0-14.969-6.193-14.969-15.38
		c0-6.606,2.994-17.961,2.994-21.368c0-2.58-0.826-2.58-3.098-2.787c-2.168-0.206-2.89-1.755-2.89-3.819
		c0-4.129,3.511-5.574,6.916-6.813c4.438-1.755,13.11-4.026,17.755-4.026c4.439,0,5.471,2.787,5.471,6.813
		c0,6.503-2.993,16.517-3.818,23.639c-0.413,4.645-0.104,9.187,2.891,9.187c9.289,0,11.252-20.955,11.354-26.942
		c0.207-11.045,8.052-12.077,18.786-12.594c3.82-0.206,5.678,0.929,5.678,5.059c0,8.981-4.438,19.612-4.645,27.045
		c-0.104,5.368,0.826,8.981,4.748,8.981c8.463,0,12.489-11.768,12.489-18.788c0-8.671-4.954-12.18-4.954-17.032
		c0-3.923,4.231-5.368,7.534-5.368c7.845,0,9.601,5.677,9.808,12.594c0.722,21.264-10.633,41.6-32.311,41.6
		C196.222,54.71,192.093,45.936,190.854,45.936z"/>
	<path fill="#FFFFFF" d="M29.316,95.792c-0.31,1.548-1.136,4.748,0.31,4.748c1.858,0,10.116-9.187,19.51-9.187
		c7.019,0,11.768,3.51,11.768,10.839c0,7.742-3.406,18.994-3.51,24.878c-0.103,5.368,5.574,0.722,5.265,5.78
		c-0.516,7.329-16.103,13.007-22.091,12.594c-5.264-0.309-7.535-2.58-7.535-7.845c0-6.71,4.336-19.819,4.336-25.084
		c0-2.064-0.723-4.335-2.994-4.335c-7.742,0-9.704,20.749-10.219,24.773c-0.31,2.479-0.516,6.092-2.374,7.949
		c-2.581,2.684-9.187,4.748-12.8,4.748c-4.232,0-8.981-1.136-8.981-6.193c0-2.685,1.445-8.052,1.858-10.942
		c1.136-7.948,6.091-30.452,6.091-40.258c0-2.168-0.31-3.407-2.787-3.51c-2.374-0.103-4.645,0.103-4.645-3.2
		c0-4.645,5.884-6.71,9.497-7.845c4.852-1.549,10.219-2.787,15.277-2.787c3.923,0,6.916,0.619,6.916,4.955
		c0,3.51-1.342,9.91-1.858,13.523L29.316,95.792z"/>
	<path fill="#FFFFFF" d="M121.286,103.637c0,12.49-13.935,22.193-25.6,22.193c-1.445,0-4.026,0-4.026,2.168
		c0,2.994,3.716,4.645,6.297,4.645c7.432,0,13.11-5.885,16.413-5.885c2.168,0,4.129,2.271,4.129,4.336
		c0,5.471-6.916,8.878-11.148,10.839c-5.781,2.581-11.355,4.129-17.858,4.129c-12.594,0-23.535-5.472-23.02-19.304
		c0.929-21.47,20.955-35.406,39.742-35.406C114.37,91.353,121.286,94.553,121.286,103.637z M91.453,114.476
		c0,1.239,0.413,2.89,1.858,2.89c2.89,0,7.948-7.638,7.639-12.594c-0.103-1.342-0.722-3.2-2.374-3.2
		C94.343,101.572,91.453,111.172,91.453,114.476z"/>
	<path fill="#FFFFFF" d="M154.829,130.993c0.619,10.012-3.717,13.935-17.857,14.555c-3.82,0.207-7.95-0.826-7.95-5.471
		c0-6.193,4.129-19.098,4.336-28.698c0.103-2.787-0.207-3.613-2.995-3.613c-3.2,0-4.852-0.826-4.852-4.541
		c0-5.574,8.361-7.226,12.284-9.187c2.787-1.446,6.193-2.684,9.497-2.684c6.297,0,3.511,9.806,6.813,9.806
		c2.994,0,2.684-9.909,12.283-9.909c6.711,0,11.252,5.781,11.252,12.284c0,6.297-3.098,12.387-10.117,12.387
		c-3.715,0-5.16-1.445-6.916-4.438c-0.31-0.619-1.238-2.477-2.064-2.477c-1.445,0-2.064,4.335-2.168,5.264L154.829,130.993z"/>
	<path fill="#FFFFFF" d="M232.866,103.637c0,12.49-13.936,22.193-25.6,22.193c-1.445,0-4.027,0-4.027,2.168
		c0,2.994,3.717,4.645,6.298,4.645c7.433,0,13.11-5.885,16.413-5.885c2.168,0,4.129,2.271,4.129,4.336
		c0,5.471-6.916,8.878-11.148,10.839c-5.781,2.581-11.354,4.129-17.857,4.129c-12.594,0-23.535-5.472-23.02-19.304
		c0.928-21.47,20.954-35.406,39.741-35.406C225.95,91.353,232.866,94.553,232.866,103.637z M203.034,114.476
		c0,1.239,0.412,2.89,1.857,2.89c2.891,0,7.948-7.638,7.639-12.594c-0.102-1.342-0.721-3.2-2.373-3.2
		C205.924,101.572,203.034,111.172,203.034,114.476z"/>
	<path fill="#FFFFFF" d="M259.905,134.398c-0.309,7.226-5.986,12.077-12.283,12.077s-11.562-4.852-11.252-12.077
		c0.311-6.917,5.986-11.458,12.283-11.458C254.951,122.94,260.216,127.482,259.905,134.398z"/>
	<path fill="#FFFFFF" d="M259.92,169.784h-74.407c-4.929-0.003-9.43,2.01-12.654,5.241c-3.232,3.226-5.244,7.726-5.242,12.655
		v34.097c-0.002,1.481-0.297,2.765-0.801,3.9c-0.754,1.698-2,3.085-3.551,4.063c-1.548,0.979-3.381,1.518-5.195,1.516
		c-1.141-0.002-2.273-0.207-3.363-0.643c-1.09-0.437-2.145-1.1-3.143-2.072l-54.988-53.668c-3.343-3.264-7.829-5.09-12.5-5.09H0
		v8.445h84.075c2.466,0,4.836,0.965,6.601,2.688l54.988,53.668c1.772,1.732,3.791,3.027,5.907,3.871
		c2.119,0.847,4.328,1.246,6.498,1.246c4.611-0.007,9.047-1.771,12.406-4.902c1.676-1.568,3.08-3.489,4.06-5.695
		c0.981-2.204,1.526-4.691,1.524-7.326V187.68c0.002-2.624,1.051-4.96,2.769-6.684c1.724-1.717,4.06-2.766,6.685-2.768h74.406
		L259.92,169.784L259.92,169.784z"/>
</g>
</svg>
